<svg width="32" height="23" viewBox="0 0 32 23" fill="none" xmlns="http://www.w3.org/2000/svg">
<g clip-path="url(#clip0_411_1340)">
<path d="M16.7859 17.1725C16.8583 17.2449 16.8997 17.3485 16.8997 17.4416C16.8997 17.5348 16.8583 17.6486 16.7859 17.7107C16.7135 17.7729 16.6101 17.8246 16.517 17.8246H0.91002C0.806594 17.8246 0.703168 17.7832 0.641112 17.7107C0.579057 17.6383 0.527344 17.5348 0.527344 17.4416C0.527344 17.3485 0.568714 17.2346 0.641112 17.1725C0.713511 17.1104 0.816937 17.069 0.91002 17.069H6.57776C7.78785 15.7544 8.39806 14.2431 8.39806 12.5456V12.3593H6.53639C5.17117 12.3593 3.98177 11.8728 2.99923 10.8894C2.01668 9.92677 1.53058 8.7364 1.53058 7.37006C1.53058 5.47582 2.21319 3.86106 3.54738 2.51543C4.88158 1.16979 6.50537 0.507324 8.39806 0.507324H10.8389C12.2041 0.507324 13.3935 0.993823 14.3761 1.96682C15.3586 2.95017 15.8447 4.13019 15.8447 5.50687C15.8447 7.37006 15.2138 8.94342 13.9417 10.258C12.6592 11.5726 11.0665 12.2661 9.1841 12.3696V12.5559C9.1841 14.2121 8.66697 15.713 7.61202 17.0793H16.5273C16.6308 17.0793 16.7342 17.1104 16.7963 17.1828L16.7859 17.1725ZM3.54738 10.3615C4.36445 11.1792 5.36768 11.6036 6.53639 11.6036H8.97725C10.6631 11.6036 12.0904 11.0136 13.2901 9.8129C14.4899 8.61218 15.069 7.20444 15.069 5.50687C15.069 4.33721 14.6553 3.34351 13.8279 2.51543C13.0005 1.68734 12.0076 1.2733 10.8389 1.2733H8.39806C6.71222 1.2733 5.28494 1.86331 4.09554 3.06403C2.8958 4.26475 2.30627 5.69319 2.30627 7.37006C2.30627 8.53973 2.71997 9.53343 3.54738 10.3615Z" fill="#F57B20" stroke="#F57B20" stroke-miterlimit="10"/>
<path d="M23.157 10.2165C23.6327 9.7403 24.0361 9.20205 24.336 8.61204H15.4C15.2966 8.61204 15.1932 8.57064 15.1311 8.47748C15.0484 8.40502 14.9967 8.30151 14.9967 8.20835C14.9967 8.09449 15.038 7.99098 15.1311 7.90817C15.2035 7.83571 15.3069 7.79431 15.4 7.79431H24.698C24.9669 7.05939 25.1014 6.30376 25.1014 5.51708V4.26461H15.7103C15.6069 4.26461 15.5035 4.2232 15.4414 4.13004C15.3587 4.05759 15.3069 3.95408 15.3069 3.84021C15.3069 3.7367 15.3483 3.63319 15.4414 3.55038C15.5138 3.47793 15.6172 3.43652 15.7103 3.43652H25.9185V5.51708C25.9185 7.50448 25.1841 9.27451 23.7258 10.7961C22.2158 12.2556 21.0781 12.9802 19.0717 12.9802H15.3897C15.2863 12.9802 15.1828 12.9388 15.1208 12.8663C15.038 12.7939 14.9863 12.6903 14.9863 12.5765C14.9863 12.4626 15.0277 12.3591 15.1208 12.2763C15.1932 12.2039 15.2966 12.1624 15.3897 12.1624H19.0717C20.8506 12.1624 21.7918 11.5103 23.1466 10.2268L23.157 10.2165ZM30.6037 22.4824H16.0102V14.6053H22.5778C24.8015 14.6053 26.6838 15.3816 28.2559 16.955C29.828 18.5283 30.6037 19.5738 30.6037 21.7786V22.4721V22.4824ZM29.7866 21.6647C29.7038 19.6566 28.9695 18.8285 27.594 17.4725C26.2184 16.1165 24.5532 15.4334 22.5778 15.4334H16.8377V21.6647H29.7866ZM27.3147 12.9491C27.2423 12.8767 27.2009 12.7732 27.2009 12.68V3.84021C27.2009 3.7367 27.2423 3.63319 27.3147 3.55038C27.3871 3.47793 27.4905 3.43652 27.6043 3.43652C27.7181 3.43652 27.8215 3.47793 27.9042 3.55038C27.9766 3.63319 28.018 3.7367 28.018 3.84021V8.04273H30.6554V3.84021C30.6554 3.7367 30.6967 3.63319 30.7898 3.55038C30.8622 3.47793 30.9656 3.43652 31.0794 3.43652C31.1828 3.43652 31.2863 3.47793 31.369 3.55038C31.4414 3.63319 31.4828 3.7367 31.4828 3.84021V12.68C31.4828 12.7835 31.4414 12.887 31.369 12.9491C31.2863 13.0319 31.1828 13.0837 31.0794 13.0837C30.9656 13.0837 30.8622 13.0423 30.7898 12.9491C30.7071 12.8767 30.6554 12.7732 30.6554 12.68V8.87082H28.018V12.68C28.018 12.7835 27.9766 12.887 27.9042 12.9491C27.8215 13.0319 27.7181 13.0837 27.6043 13.0837C27.4905 13.0837 27.3871 13.0423 27.3147 12.9491Z" fill="#F57B20" stroke="#F57B20" stroke-miterlimit="10"/>
</g>
<defs>
<clipPath id="clip0_411_1340">
<rect width="32" height="23" fill="white"/>
</clipPath>
</defs>
</svg>
