<svg width="32" height="32" viewBox="0 0 32 32" fill="none" xmlns="http://www.w3.org/2000/svg">
<path d="M16.76 21.4799C16.83 21.5499 16.87 21.6499 16.87 21.7399C16.87 21.8299 16.83 21.9399 16.76 21.9999C16.69 22.0599 16.59 22.1099 16.5 22.1099H1.41004C1.31004 22.1099 1.21004 22.0699 1.15004 21.9999C1.09004 21.9299 1.04004 21.8299 1.04004 21.7399C1.04004 21.6499 1.08004 21.5399 1.15004 21.4799C1.22004 21.4199 1.32004 21.3799 1.41004 21.3799H6.89004C8.06004 20.1099 8.65004 18.6499 8.65004 17.0099V16.8299H6.85004C5.53004 16.8299 4.38004 16.3599 3.43004 15.4099C2.48004 14.4799 2.01004 13.3299 2.01004 12.0099C2.01004 10.1799 2.67004 8.61988 3.96004 7.31988C5.25004 6.01988 6.82004 5.37988 8.65004 5.37988H11.01C12.33 5.37988 13.48 5.84988 14.43 6.78988C15.38 7.73988 15.85 8.87988 15.85 10.2099C15.85 12.0099 15.24 13.5299 14.01 14.7999C12.77 16.0699 11.23 16.7399 9.41004 16.8399V17.0199C9.41004 18.6199 8.91004 20.0699 7.89004 21.3899H16.51C16.61 21.3899 16.71 21.4199 16.77 21.4899L16.76 21.4799ZM3.96004 14.8999C4.75004 15.6899 5.72004 16.0999 6.85004 16.0999H9.21004C10.84 16.0999 12.22 15.5299 13.38 14.3699C14.54 13.2099 15.1 11.8499 15.1 10.2099C15.1 9.07988 14.7 8.11988 13.9 7.31988C13.1 6.51988 12.14 6.11988 11.01 6.11988H8.65004C7.02004 6.11988 5.64004 6.68988 4.49004 7.84988C3.33004 9.00988 2.76004 10.3899 2.76004 12.0099C2.76004 13.1399 3.16004 14.0999 3.96004 14.8999Z" fill="#F57B20" stroke="#F57B20" stroke-miterlimit="10"/>
<path d="M22.92 14.7602C23.38 14.3002 23.77 13.7802 24.06 13.2102H15.42C15.32 13.2102 15.22 13.1702 15.16 13.0802C15.08 13.0102 15.03 12.9102 15.03 12.8202C15.03 12.7102 15.07 12.6102 15.16 12.5302C15.23 12.4602 15.33 12.4202 15.42 12.4202H24.41C24.67 11.7102 24.8 10.9802 24.8 10.2202V9.0102H15.72C15.62 9.0102 15.52 8.9702 15.46 8.8802C15.38 8.8102 15.33 8.7102 15.33 8.6002C15.33 8.5002 15.37 8.4002 15.46 8.3202C15.53 8.2502 15.63 8.2102 15.72 8.2102H25.59V10.2202C25.59 12.1402 24.88 13.8502 23.47 15.3202C22.01 16.7302 20.91 17.4302 18.97 17.4302H15.41C15.31 17.4302 15.21 17.3902 15.15 17.3202C15.07 17.2502 15.02 17.1502 15.02 17.0402C15.02 16.9302 15.06 16.8302 15.15 16.7502C15.22 16.6802 15.32 16.6402 15.41 16.6402H18.97C20.69 16.6402 21.6 16.0102 22.91 14.7702L22.92 14.7602ZM30.12 26.6102H16.01V19.0002H22.36C24.51 19.0002 26.33 19.7502 27.85 21.2702C29.37 22.7902 30.12 23.8002 30.12 25.9302V26.6002V26.6102ZM29.33 25.8202C29.25 23.8802 28.54 23.0802 27.21 21.7702C25.88 20.4602 24.27 19.8002 22.36 19.8002H16.81V25.8202H29.33ZM26.94 17.3902C26.87 17.3202 26.83 17.2202 26.83 17.1302V8.5902C26.83 8.4902 26.87 8.3902 26.94 8.3102C27.01 8.2402 27.11 8.2002 27.22 8.2002C27.33 8.2002 27.43 8.2402 27.51 8.3102C27.58 8.3902 27.62 8.4902 27.62 8.5902V12.6502H30.17V8.5902C30.17 8.4902 30.21 8.3902 30.3 8.3102C30.37 8.2402 30.47 8.2002 30.58 8.2002C30.68 8.2002 30.78 8.2402 30.86 8.3102C30.93 8.3902 30.97 8.4902 30.97 8.5902V17.1302C30.97 17.2302 30.93 17.3302 30.86 17.3902C30.78 17.4702 30.68 17.5202 30.58 17.5202C30.47 17.5202 30.37 17.4802 30.3 17.3902C30.22 17.3202 30.17 17.2202 30.17 17.1302V13.4502H27.62V17.1302C27.62 17.2302 27.58 17.3302 27.51 17.3902C27.43 17.4702 27.33 17.5202 27.22 17.5202C27.11 17.5202 27.01 17.4802 26.94 17.3902Z" fill="#F57B20" stroke="#F57B20" stroke-miterlimit="10"/>
</svg>
