<svg width="174" height="60" viewBox="0 0 174 60" fill="none" xmlns="http://www.w3.org/2000/svg">
<g clip-path="url(#clip0_406_1235)">
<path d="M64.0812 56.2331C64.1935 56.3474 64.2632 56.5089 64.2632 56.6705C64.2632 56.832 64.1935 56.9936 64.0812 57.1078C63.9688 57.2221 63.81 57.293 63.6512 57.293H39.0939C38.9351 57.293 38.7763 57.2221 38.664 57.1078C38.5517 56.9936 38.4819 56.832 38.4819 56.6705C38.4819 56.5089 38.5517 56.3474 38.664 56.2331C38.7763 56.1188 38.9351 56.0716 39.0939 56.0716H48.0143C49.9201 53.9715 50.8729 51.5483 50.8729 48.8454V48.546H47.9446C45.7871 48.546 43.9279 47.7619 42.3824 46.1898C40.8408 44.6413 40.0662 42.7501 40.0662 40.5554C40.0662 37.5294 41.1313 34.9447 43.2423 32.7973C45.3533 30.65 47.8943 29.5901 50.869 29.5901H54.7037C56.8612 29.5901 58.7204 30.3742 60.2659 31.9226C61.8075 33.4908 62.5822 35.386 62.5822 37.5806C62.5822 40.5594 61.5828 43.0771 59.588 45.1772C57.57 47.2772 55.0717 48.3844 52.0969 48.546V48.8454C52.0969 51.501 51.2796 53.9006 49.6218 56.0716H63.6473C63.8062 56.0716 63.965 56.1188 64.0773 56.2331H64.0812ZM43.2462 45.3387C44.5399 46.6547 46.1048 47.3245 47.9446 47.3245H51.7793C54.4364 47.3245 56.683 46.3789 58.5655 44.4601C60.4479 42.5412 61.3582 40.2796 61.3582 37.5806C61.3582 35.7091 60.6997 34.1173 59.406 32.8013C58.1123 31.4853 56.5474 30.8155 54.7076 30.8155H50.8729C48.2158 30.8155 45.9692 31.7611 44.11 33.6799C42.2275 35.5948 41.294 37.8801 41.294 40.5594C41.294 42.4309 41.9525 44.0227 43.2462 45.3387Z" fill="#F57B20" stroke="#F57B20" stroke-width="2" stroke-miterlimit="10"/>
<path d="M93.2476 44.1606C93.3832 44.2985 93.4529 44.46 93.4529 44.6452C93.4529 44.8304 93.3832 44.992 93.2476 45.1299C93.112 45.2678 92.9532 45.3387 92.7712 45.3387H66.0797C65.8976 45.3387 65.7388 45.2678 65.6032 45.1299C65.4677 44.992 65.3979 44.8304 65.3979 44.6452C65.3979 44.46 65.4677 44.2985 65.6032 44.1606C65.7388 44.0227 65.8976 43.9518 66.0797 43.9518H92.7712C92.9532 43.9518 93.112 44.0227 93.2476 44.1606ZM69.802 54.8265C69.097 55.5436 68.7368 56.4183 68.7368 57.4112V58.1716H90.3426C90.5479 58.1716 90.7067 58.2425 90.8422 58.3804C90.9778 58.5184 91.0475 58.6799 91.0475 58.8887C91.0475 59.0976 90.9778 59.2591 90.8422 59.397C90.7067 59.5349 90.5479 59.6058 90.3426 59.6058H67.3308V57.4112C67.3308 56.0046 67.8304 54.8028 68.8065 53.8099C69.7826 52.817 70.9408 52.3324 72.3236 52.3324H89.6415V52.8288C89.6415 51.8359 89.3006 50.9809 88.5957 50.2678C87.8907 49.5546 87.0541 49.2039 86.0547 49.2039H68.0357C67.8537 49.2039 67.6949 49.133 67.5593 48.9951C67.4005 48.8572 67.3308 48.6957 67.3308 48.4868C67.3308 48.278 67.4005 48.1165 67.5593 47.9786C67.6949 47.8407 67.8537 47.7697 68.0357 47.7697H86.0547C87.4375 47.7697 88.6189 48.2544 89.595 49.2473C90.5711 50.2402 91.0475 51.4419 91.0475 52.8249V53.7587H72.3236C71.3475 53.7587 70.5069 54.1054 69.8059 54.8225L69.802 54.8265ZM73.4778 31.6232C71.026 34.3458 69.6858 36.3749 69.4611 40.2087L89.2968 40.1929C89.4788 40.2165 89.6376 40.2835 89.7499 40.4017C89.8623 40.5199 89.932 40.6775 89.932 40.8627C89.932 41.0479 89.8623 41.2094 89.7499 41.3237C89.6376 41.438 89.4788 41.5089 89.2968 41.5089L68.1442 41.501V40.8548C68.2139 36.4222 69.6858 33.8848 72.5482 30.7248L73.7296 29.4561C73.8419 29.3182 74.0007 29.2473 74.1828 29.2236C74.3416 29.2236 74.5004 29.2946 74.636 29.4088C74.7716 29.5467 74.8413 29.7083 74.8413 29.8698C74.8413 30.055 74.7716 30.2165 74.6592 30.3544L73.4778 31.6232Z" fill="#808080" stroke="#808080" stroke-width="2" stroke-miterlimit="10"/>
<path d="M108.97 39.9802C109.717 39.2198 110.352 38.3648 110.829 37.4191H96.7607C96.6019 37.4191 96.4431 37.3482 96.3308 37.2103C96.1952 37.0961 96.1255 36.9345 96.1255 36.773C96.1255 36.5878 96.1952 36.4262 96.3308 36.2883C96.4431 36.1741 96.6019 36.1031 96.7607 36.1031H111.394C111.824 34.9251 112.03 33.7233 112.03 32.4546V30.4451H97.2604C97.1016 30.4451 96.9428 30.3742 96.8304 30.2363C96.6949 30.1221 96.6252 29.9605 96.6252 29.7753C96.6252 29.6138 96.6949 29.4522 96.8304 29.3143C96.9428 29.2001 97.1016 29.1292 97.2604 29.1292H113.323V32.4546C113.323 35.6422 112.165 38.4554 109.872 40.9061C107.49 43.2387 105.701 44.3931 102.548 44.3931H96.7607C96.6019 44.3931 96.4431 44.3222 96.3308 44.2079C96.1952 44.0937 96.1255 43.9321 96.1255 43.747C96.1255 43.5618 96.1952 43.4002 96.3308 43.2623C96.4431 43.1481 96.6019 43.0771 96.7607 43.0771H102.548C105.34 43.0771 106.832 42.037 108.966 39.9842L108.97 39.9802ZM120.687 59.6059H97.7175V47.0133H108.044C111.538 47.0133 114.512 48.2584 116.988 50.7761C119.463 53.2938 120.687 54.9645 120.687 58.4987V59.6059ZM119.393 58.2899C119.257 55.0827 118.099 53.7548 115.942 51.5838C113.784 49.4128 111.154 48.3293 108.044 48.3293H99.0112V58.2899H119.393ZM115.512 44.3459C115.399 44.2316 115.33 44.07 115.33 43.9085V29.7793C115.33 29.6177 115.399 29.4562 115.512 29.3183C115.624 29.204 115.783 29.1331 115.965 29.1331C116.147 29.1331 116.306 29.204 116.441 29.3183C116.554 29.4562 116.623 29.6177 116.623 29.7793V36.4972H120.776V29.7793C120.776 29.6177 120.845 29.4562 120.981 29.3183C121.093 29.204 121.252 29.1331 121.434 29.1331C121.593 29.1331 121.752 29.204 121.887 29.3183C122 29.4562 122.069 29.6177 122.069 29.7793V43.9085C122.069 44.07 122 44.2316 121.887 44.3459C121.752 44.4838 121.593 44.5547 121.434 44.5547C121.252 44.5547 121.093 44.4838 120.981 44.3459C120.845 44.2316 120.776 44.07 120.776 43.9085V37.8132H116.623V43.9085C116.623 44.07 116.554 44.2316 116.441 44.3459C116.306 44.4838 116.147 44.5547 115.965 44.5547C115.783 44.5547 115.624 44.4838 115.512 44.3459Z" fill="#F57B20" stroke="#F57B20" stroke-width="2" stroke-miterlimit="10"/>
<path d="M130.762 30.4254H125.064C124.882 30.4254 124.723 30.3545 124.611 30.2402C124.498 30.126 124.429 29.9644 124.429 29.7792C124.429 29.594 124.498 29.4325 124.611 29.3182C124.723 29.204 124.882 29.1331 125.064 29.1331H142.087C142.27 29.1331 142.428 29.204 142.541 29.3182C142.653 29.4325 142.723 29.594 142.723 29.7792C142.723 29.9644 142.653 30.126 142.541 30.2402C142.428 30.3545 142.27 30.4254 142.087 30.4254H138.888V41.9345H142.087C142.27 41.9345 142.428 42.0054 142.541 42.1197C142.653 42.2339 142.723 42.3955 142.723 42.5807C142.723 42.7658 142.653 42.9274 142.541 43.0416C142.428 43.1559 142.27 43.2268 142.087 43.2268H125.064C124.882 43.2268 124.723 43.1559 124.611 43.0416C124.498 42.9274 124.429 42.7658 124.429 42.5807C124.429 42.3955 124.498 42.2339 124.611 42.1197C124.723 42.0054 124.882 41.9345 125.064 41.9345H128.287V35.5042C128.287 33.4278 129.104 31.7414 130.762 30.4254ZM148.285 47.3915C149.555 48.7075 150.191 50.2757 150.191 52.1C150.191 54.1528 149.462 55.9337 148.033 57.3876C146.604 58.8415 144.834 59.6019 142.812 59.6019H132.055C130.126 59.6019 128.492 58.9085 127.152 57.5255C125.788 56.1386 125.11 54.4798 125.11 52.5176C125.11 50.5554 125.792 48.9163 127.152 47.5294C128.492 46.1425 130.126 45.453 132.055 45.453H143.676C145.469 45.453 147.011 46.0992 148.281 47.3915H148.285ZM147.127 56.4892C148.331 55.2639 148.92 53.81 148.92 52.1039C148.92 50.6264 148.397 49.3576 147.379 48.3175C146.36 47.2773 145.109 46.7493 143.679 46.7493H132.059C130.494 46.7493 129.177 47.3048 128.066 48.4357C126.954 49.5665 126.385 50.9297 126.385 52.5216C126.385 54.1134 126.95 55.4766 128.066 56.6074C129.181 57.7383 130.494 58.3175 132.059 58.3175H142.816C144.497 58.3175 145.926 57.7186 147.127 56.4932V56.4892ZM134.531 30.4254C133.148 30.4254 131.99 30.91 131.013 31.903C130.037 32.8959 129.561 34.0976 129.561 35.5042V41.9345H137.618V30.4254H134.531ZM148.238 29.4089C148.351 29.5231 148.42 29.6847 148.42 29.8699V43.7903C148.42 43.9518 148.351 44.1134 148.238 44.2276C148.126 44.3655 147.967 44.4364 147.785 44.4364C147.603 44.4364 147.444 44.3655 147.332 44.2276C147.22 44.1134 147.15 43.9518 147.15 43.7903V29.8699C147.15 29.6847 147.22 29.5231 147.332 29.4089C147.444 29.2946 147.603 29.2237 147.785 29.2237C147.967 29.2237 148.126 29.2946 148.238 29.4089Z" fill="#808080" stroke="#808080" stroke-width="2" stroke-miterlimit="10"/>
<path d="M166.575 41.3671C165.463 42.9589 163.918 44.0227 161.969 44.598C161.516 44.7359 161.152 44.992 160.881 45.3584C160.61 45.7524 160.474 46.1898 160.474 46.6744V53.2781C160.474 53.4869 160.404 53.6484 160.269 53.7863C160.11 53.9242 159.951 53.9952 159.746 53.9952C159.541 53.9952 159.382 53.9242 159.246 53.7863C159.111 53.6484 159.041 53.4869 159.041 53.2781V46.6744C159.041 45.8667 159.269 45.126 159.746 44.4798C160.222 43.8572 160.834 43.416 161.605 43.2111C163.216 42.7264 164.487 41.8478 165.417 40.5318C166.346 39.2158 166.799 37.7146 166.733 35.9849C166.621 34.1134 165.939 32.5688 164.692 31.3001C163.445 30.0314 161.923 29.3379 160.087 29.2C158.088 29.1291 156.364 29.7989 154.912 31.1859C153.483 32.6398 152.754 34.3734 152.754 36.3356C152.754 36.5444 152.685 36.706 152.549 36.8439C152.414 36.9818 152.232 37.0527 152.026 37.0527C151.821 37.0527 151.662 36.9818 151.527 36.8439C151.391 36.706 151.321 36.5444 151.321 36.3356C151.321 33.9558 152.185 31.903 153.932 30.126C155.679 28.4632 157.767 27.6792 160.149 27.7461C162.349 27.9077 164.189 28.7627 165.688 30.2875C167.187 31.8123 168.004 33.6799 168.163 35.9219C168.232 37.9747 167.686 39.7989 166.575 41.371V41.3671ZM160.358 57.1118C160.629 57.4112 160.765 57.758 160.765 58.152C160.765 58.546 160.629 58.8927 160.358 59.1685C160.064 59.468 159.723 59.6059 159.335 59.6059C158.948 59.6059 158.607 59.468 158.336 59.1685C158.042 58.8927 157.906 58.546 157.906 58.152C157.906 57.758 158.042 57.4112 158.336 57.1118C158.607 56.836 158.948 56.6981 159.335 56.6981C159.723 56.6981 160.064 56.836 160.358 57.1118Z" fill="#F57B20" stroke="#F57B20" stroke-width="2" stroke-miterlimit="10"/>
<path d="M33.9931 55.4963C24.2515 55.4412 14.5061 55.4372 4.76451 55.4136L5.58567 57.4309C23.5737 38.8967 42.0962 20.9022 60.0842 2.36789L58.2599 2.12754C63.8957 9.9132 69.1441 17.9707 73.9974 26.2844C74.7605 27.5925 76.7708 26.4026 76.0039 25.0905C71.1544 16.7769 65.9021 8.71935 60.2663 0.933691C59.8325 0.334794 59.0113 0.106268 58.4419 0.693344C40.45 19.2316 21.9314 37.2221 3.94335 55.7564C3.23839 56.4853 3.75356 57.7698 4.76451 57.7737C14.5061 57.7974 24.2515 57.8013 33.9931 57.8565C35.4882 57.8643 35.4921 55.5003 33.9931 55.4924V55.4963Z" fill="#F57B20"/>
<path d="M63.2795 2.61236L84.7691 2.5572C88.3519 2.54932 91.931 2.53356 95.5138 2.52962C99.0967 2.52568 102.567 2.51386 105.98 3.44372C116.759 6.38304 123.782 16.5722 131.106 24.3736C132.141 25.4768 133.783 23.8023 132.749 22.703C125.219 14.6849 118.1 4.59423 107.146 1.32394C100.53 -0.653992 93.1085 0.173431 86.2991 0.193132C78.6259 0.212832 70.9488 0.232533 63.2756 0.252233C61.7805 0.252233 61.7766 2.62024 63.2756 2.6163L63.2795 2.61236Z" fill="#F57B20"/>
</g>
<defs>
<clipPath id="clip0_406_1235">
<rect width="173.334" height="60" fill="white"/>
</clipPath>
</defs>
</svg>
