<svg width="35" height="35" viewBox="0 0 35 35" fill="none" xmlns="http://www.w3.org/2000/svg">
<path d="M2.3584 2.90528L2.1875 3.06934V17.124V31.1719H1.36719H0.546875V31.7188V32.2656H17.5H34.4531V31.7188V31.1719H33.0859H31.7188V25.1563V19.1406H32.0947C32.4092 19.1406 32.5049 19.1133 32.6416 18.9697L32.8125 18.8057V16.9531V15.1006L32.6416 14.9365L32.4775 14.7656H26.0928H19.708L19.667 13.7881C19.626 12.6191 19.4756 11.9834 19.0381 11.0947C18.4297 9.86426 17.4453 8.87988 16.2354 8.29199C15.251 7.82031 14.7314 7.71094 13.2822 7.67676C12.2568 7.64942 12.0312 7.62207 12.0312 7.54004C12.0312 7.49219 11.9561 7.36914 11.8604 7.28028L11.6963 7.10938H9.67285H7.65625V6.7334C7.65625 6.41895 7.62891 6.32324 7.48535 6.18653C7.32812 6.02246 7.28711 6.01563 6.3916 6.01563H5.46875V4.5459C5.46875 2.59082 5.59863 2.73438 3.82812 2.73438C2.53613 2.73438 2.52246 2.73438 2.3584 2.90528ZM4.375 17.5V31.1719H3.82812H3.28125V17.5V3.82813H3.82812H4.375V17.5ZM6.5625 9.84375V12.5781H6.01562H5.46875V9.84375V7.10938H6.01562H6.5625V9.84375ZM10.9375 9.84375V11.4844H9.29688H7.65625V9.84375V8.20313H9.29688H10.9375V9.84375ZM14.9365 8.95508C16.6523 9.50195 17.8555 10.7051 18.3887 12.4072C18.498 12.7627 18.5459 13.1318 18.5732 13.8223L18.6143 14.7656H16.9736H15.333L15.292 14.0957C15.2305 13.0225 14.875 12.2021 14.1367 11.4775C13.6924 11.04 12.9883 10.6504 12.3936 10.5137L12.0312 10.4248V9.58399V8.73633L13.248 8.76367C14.2598 8.79102 14.54 8.8252 14.9365 8.95508ZM12.6943 11.792C13.6172 12.2568 14.1436 13.0703 14.2051 14.1572L14.2393 14.7656H10.5684H6.89746L6.7334 14.9365L6.5625 15.1006V16.9531V18.8057L6.7334 18.9697C6.87012 19.1133 6.96582 19.1406 7.28027 19.1406H7.65625V25.1563V31.1719H6.5625H5.46875V22.4219V13.6719H6.3916C7.28711 13.6719 7.32812 13.665 7.48535 13.501C7.62891 13.3643 7.65625 13.2686 7.65625 12.9541V12.5781H9.67285H11.6963L11.8604 12.4072C11.9971 12.2773 12.0312 12.1748 12.0312 11.8945C12.0312 11.4775 12.0586 11.4707 12.6943 11.792ZM31.7188 16.9531V18.0469H19.6875H7.65625V16.9531V15.8594H19.6875H31.7188V16.9531ZM10.9375 20.2344V21.3281H9.84375H8.75V20.2344V19.1406H9.84375H10.9375V20.2344ZM14.2188 20.2344V21.3281H13.125H12.0312V20.2344V19.1406H13.125H14.2188V20.2344ZM17.5 20.2344V21.3281H16.4062H15.3125V20.2344V19.1406H16.4062H17.5V20.2344ZM20.7812 20.2344V21.3281H19.6875H18.5938V20.2344V19.1406H19.6875H20.7812V20.2344ZM24.0625 20.2344V21.3281H22.9688H21.875V20.2344V19.1406H22.9688H24.0625V20.2344ZM27.3438 20.2344V21.3281H26.25H25.1562V20.2344V19.1406H26.25H27.3438V20.2344ZM30.625 20.2344V21.3281H29.5312H28.4375V20.2344V19.1406H29.5312H30.625V20.2344ZM10.9375 25.1563V27.8906H9.84375H8.75V25.1563V22.4219H9.84375H10.9375V25.1563ZM14.2188 25.1563V27.8906H13.125H12.0312V25.1563V22.4219H13.125H14.2188V25.1563ZM17.5 25.1563V27.8906H16.4062H15.3125V25.1563V22.4219H16.4062H17.5V25.1563ZM20.7812 25.1563V27.8906H19.6875H18.5938V25.1563V22.4219H19.6875H20.7812V25.1563ZM24.0625 25.1563V27.8906H22.9688H21.875V25.1563V22.4219H22.9688H24.0625V25.1563ZM27.3438 25.1563V27.8906H26.25H25.1562V25.1563V22.4219H26.25H27.3438V25.1563ZM30.625 25.1563V27.8906H29.5312H28.4375V25.1563V22.4219H29.5312H30.625V25.1563ZM10.9375 30.0781V31.1719H9.84375H8.75V30.0781V28.9844H9.84375H10.9375V30.0781ZM14.2188 30.0781V31.1719H13.125H12.0312V30.0781V28.9844H13.125H14.2188V30.0781ZM17.5 30.0781V31.1719H16.4062H15.3125V30.0781V28.9844H16.4062H17.5V30.0781ZM20.7812 30.0781V31.1719H19.6875H18.5938V30.0781V28.9844H19.6875H20.7812V30.0781ZM24.0625 30.0781V31.1719H22.9688H21.875V30.0781V28.9844H22.9688H24.0625V30.0781ZM27.3438 30.0781V31.1719H26.25H25.1562V30.0781V28.9844H26.25H27.3438V30.0781ZM30.625 30.0781V31.1719H29.5312H28.4375V30.0781V28.9844H29.5312H30.625V30.0781Z" fill="#F57B20"/>
<path d="M20.46 5.01074C19.8721 5.62598 19.7217 5.92676 19.7217 6.5625C19.7217 7.17773 19.8652 7.49219 20.3984 8.05273C20.7197 8.39453 20.7471 8.44922 20.7471 8.75684C20.7471 9.07129 20.7266 9.1123 20.3232 9.51562C20.084 9.75488 19.8926 9.98047 19.8994 10.0146C19.9062 10.0557 20.0771 10.2334 20.2754 10.418L20.6514 10.7598L21.0479 10.3633C21.2734 10.1445 21.54 9.80273 21.6494 9.61133C21.8135 9.31738 21.8408 9.1875 21.8408 8.75C21.834 8.13477 21.6973 7.82031 21.1641 7.25977C20.8428 6.91797 20.8154 6.86328 20.8154 6.55566C20.8154 6.24121 20.8359 6.2002 21.2461 5.79687C21.4785 5.55762 21.6699 5.33203 21.6699 5.29102C21.6699 5.20215 21.0342 4.58008 20.9453 4.58008C20.9043 4.58008 20.6855 4.77148 20.46 5.01074Z" fill="#F57B20"/>
<path d="M27.0225 5.01074C26.4346 5.62598 26.2842 5.92676 26.2842 6.5625C26.2842 7.17773 26.4277 7.49219 26.9609 8.05273C27.2822 8.39453 27.3096 8.44922 27.3096 8.75684C27.3096 9.07129 27.2891 9.1123 26.8857 9.51562C26.6465 9.75488 26.4551 9.98047 26.4619 10.0146C26.4688 10.0557 26.6396 10.2334 26.8379 10.418L27.2139 10.7598L27.6104 10.3633C27.8359 10.1445 28.1025 9.80273 28.2119 9.61133C28.376 9.31738 28.4033 9.1875 28.4033 8.75C28.3965 8.13477 28.2598 7.82031 27.7266 7.25977C27.4053 6.91797 27.3779 6.86328 27.3779 6.55566C27.3779 6.24121 27.3984 6.2002 27.8086 5.79687C28.041 5.55762 28.2324 5.33203 28.2324 5.29102C28.2324 5.20215 27.5967 4.58008 27.5078 4.58008C27.4668 4.58008 27.248 4.77148 27.0225 5.01074Z" fill="#F57B20"/>
<path d="M23.7412 6.65137C23.1533 7.2666 23.0029 7.56738 23.0029 8.20312C23.0029 8.81836 23.1465 9.13281 23.6797 9.69336C24.001 10.0352 24.0283 10.0898 24.0283 10.3975C24.0283 10.7119 24.0078 10.7529 23.6045 11.1562C23.3652 11.3955 23.1738 11.6211 23.1807 11.6553C23.1875 11.6963 23.3584 11.874 23.5566 12.0586L23.9326 12.4004L24.3291 12.0039C24.5547 11.7852 24.8213 11.4434 24.9307 11.252C25.0947 10.958 25.1221 10.8281 25.1221 10.3906C25.1152 9.77539 24.9785 9.46094 24.4453 8.90039C24.124 8.55859 24.0967 8.50391 24.0967 8.19629C24.0967 7.88184 24.1172 7.84082 24.5273 7.4375C24.7598 7.19824 24.9512 6.97266 24.9512 6.93164C24.9512 6.84277 24.3154 6.2207 24.2266 6.2207C24.1855 6.2207 23.9668 6.41211 23.7412 6.65137Z" fill="#F57B20"/>
</svg>
