<svg width="24" height="24" viewBox="0 0 24 24" fill="none" xmlns="http://www.w3.org/2000/svg">
<g clip-path="url(#clip0_309_1342)">
<path d="M12 22.5C9.21523 22.5 6.54451 21.3938 4.57538 19.4246C2.60625 17.4555 1.5 14.7848 1.5 12C1.5 9.21523 2.60625 6.54451 4.57538 4.57538C6.54451 2.60625 9.21523 1.5 12 1.5C14.7848 1.5 17.4555 2.60625 19.4246 4.57538C21.3938 6.54451 22.5 9.21523 22.5 12C22.5 14.7848 21.3938 17.4555 19.4246 19.4246C17.4555 21.3938 14.7848 22.5 12 22.5ZM12 24C15.1826 24 18.2348 22.7357 20.4853 20.4853C22.7357 18.2348 24 15.1826 24 12C24 8.8174 22.7357 5.76516 20.4853 3.51472C18.2348 1.26428 15.1826 0 12 0C8.8174 0 5.76516 1.26428 3.51472 3.51472C1.26428 5.76516 0 8.8174 0 12C0 15.1826 1.26428 18.2348 3.51472 20.4853C5.76516 22.7357 8.8174 24 12 24Z" fill="black"/>
<path d="M12 6C12.1989 6 12.3897 6.07902 12.5303 6.21967C12.671 6.36032 12.75 6.55109 12.75 6.75V11.25H17.25C17.4489 11.25 17.6397 11.329 17.7803 11.4697C17.921 11.6103 18 11.8011 18 12C18 12.1989 17.921 12.3897 17.7803 12.5303C17.6397 12.671 17.4489 12.75 17.25 12.75H12.75V17.25C12.75 17.4489 12.671 17.6397 12.5303 17.7803C12.3897 17.921 12.1989 18 12 18C11.8011 18 11.6103 17.921 11.4697 17.7803C11.329 17.6397 11.25 17.4489 11.25 17.25V12.75H6.75C6.55109 12.75 6.36032 12.671 6.21967 12.5303C6.07902 12.3897 6 12.1989 6 12C6 11.8011 6.07902 11.6103 6.21967 11.4697C6.36032 11.329 6.55109 11.25 6.75 11.25H11.25V6.75C11.25 6.55109 11.329 6.36032 11.4697 6.21967C11.6103 6.07902 11.8011 6 12 6Z" fill="black"/>
<path d="M35.88 17.7803C36.0789 17.7803 36.2697 17.8593 36.4103 18C36.551 18.1407 36.63 18.3314 36.63 18.5303V23.0303H41.13C41.3289 23.0303 41.5197 23.1093 41.6603 23.25C41.801 23.3907 41.88 23.5814 41.88 23.7803C41.88 23.9792 41.801 24.17 41.6603 24.3107C41.5197 24.4513 41.3289 24.5303 41.13 24.5303H36.63V29.0303C36.63 29.2292 36.551 29.42 36.4103 29.5607C36.2697 29.7013 36.0789 29.7803 35.88 29.7803C35.6811 29.7803 35.4903 29.7013 35.3497 29.5607C35.209 29.42 35.13 29.2292 35.13 29.0303V24.5303H30.63C30.4311 24.5303 30.2403 24.4513 30.0997 24.3107C29.959 24.17 29.88 23.9792 29.88 23.7803C29.88 23.5814 29.959 23.3907 30.0997 23.25C30.2403 23.1093 30.4311 23.0303 30.63 23.0303H35.13V18.5303C35.13 18.3314 35.209 18.1407 35.3497 18C35.4903 17.8593 35.6811 17.7803 35.88 17.7803Z" fill="black"/>
</g>
<defs>
<clipPath id="clip0_309_1342">
<rect width="24" height="24" fill="white"/>
</clipPath>
</defs>
</svg>
