<svg width="35" height="35" viewBox="0 0 35 35" fill="none" xmlns="http://www.w3.org/2000/svg">
<path d="M33.6524 13.3766C33.7624 13.2698 33.848 13.1404 33.9031 12.9973C33.9583 12.8542 33.9818 12.7009 33.9721 12.5479C33.9623 12.3949 33.9195 12.2458 33.8465 12.1109C33.7736 11.976 33.6723 11.8586 33.5496 11.7666C28.8862 8.37531 23.2661 6.553 17.4999 6.56254C11.504 6.56254 5.9565 8.49191 1.45025 11.7666C1.32741 11.8584 1.22593 11.9757 1.15281 12.1105C1.07968 12.2453 1.03664 12.3944 1.02666 12.5474C1.01668 12.7004 1.04 12.8538 1.095 12.9969C1.15 13.1401 1.23537 13.2696 1.34525 13.3766C1.53687 13.5641 1.78856 13.6779 2.05592 13.6979C2.32327 13.7179 2.5891 13.6429 2.8065 13.486C7.08351 10.3997 12.2256 8.74226 17.4999 8.75004C22.984 8.75004 28.059 10.5044 32.1912 13.4838C32.6396 13.8075 33.2631 13.7682 33.6524 13.3766Z" fill="#F57B20"/>
<path d="M28.938 18.0928C29.0507 17.9841 29.1378 17.8516 29.1929 17.705C29.248 17.5583 29.2697 17.4013 29.2565 17.2452C29.2433 17.0892 29.1955 16.938 29.1166 16.8027C29.0377 16.6674 28.9296 16.5514 28.8002 16.4631C25.4364 14.2788 21.5104 13.1191 17.4996 13.125C13.3324 13.125 9.44958 14.35 6.19896 16.4631C6.06891 16.5509 5.96019 16.6667 5.88078 16.802C5.80137 16.9373 5.75328 17.0887 5.74006 17.245C5.72684 17.4013 5.74882 17.5586 5.80439 17.7054C5.85995 17.8521 5.94769 17.9845 6.06114 18.0928C6.24753 18.2747 6.49021 18.3879 6.74936 18.4137C7.00852 18.4396 7.26877 18.3766 7.48739 18.235C10.4756 16.3211 13.951 15.3066 17.4996 15.3125C21.0474 15.307 24.522 16.3215 27.5096 18.235C27.9602 18.5238 28.5596 18.4713 28.938 18.0928ZM24.1627 22.8681C24.6571 22.3738 24.5674 21.5447 23.944 21.2275C21.9471 20.2139 19.739 19.6862 17.4996 19.6875C15.1808 19.6875 12.989 20.2431 11.0552 21.2275C10.4318 21.5447 10.3421 22.3738 10.8365 22.8681L10.8693 22.901C11.2193 23.251 11.7596 23.3166 12.2058 23.0978C13.8541 22.2919 15.6648 21.8737 17.4996 21.875C19.3983 21.875 21.1965 22.3147 22.7933 23.1C23.2374 23.3188 23.7777 23.2531 24.1277 22.901L24.1627 22.8681ZM19.8183 27.2125C20.2471 26.7838 20.2515 26.075 19.7308 25.7688C19.0555 25.3681 18.2848 25.1565 17.4996 25.1563C16.7143 25.1565 15.9436 25.3681 15.2683 25.7688C14.7477 26.075 14.7521 26.7838 15.1808 27.2125L16.7252 28.7569C16.9303 28.9619 17.2085 29.0771 17.4985 29.0771C17.7885 29.0771 18.0667 28.9619 18.2718 28.7569L19.8183 27.2125Z" fill="#F57B20"/>
</svg>
