<svg width="34" height="35" viewBox="0 0 34 35" fill="none" xmlns="http://www.w3.org/2000/svg">
<g clip-path="url(#clip0_226_145)">
<path d="M25.8528 19.5571C24.7393 21.8802 23.2305 24.1946 21.6877 26.2727C20.2227 28.2306 18.6579 30.1071 17 31.8946C15.3421 30.1071 13.7773 28.2306 12.3123 26.2727C10.7695 24.1946 9.26075 21.8802 8.14725 19.5571C7.021 17.2099 6.375 15.0115 6.375 13.1259C6.375 10.225 7.49442 7.44305 9.48699 5.39187C11.4796 3.34069 14.1821 2.18835 17 2.18835C19.8179 2.18835 22.5204 3.34069 24.513 5.39187C26.5056 7.44305 27.625 10.225 27.625 13.1259C27.625 15.0115 26.9769 17.2099 25.8528 19.5571ZM17 35.0009C17 35.0009 29.75 22.5627 29.75 13.1259C29.75 9.64489 28.4067 6.30649 26.0156 3.84508C23.6245 1.38366 20.3815 0.000854492 17 0.000854492C13.6185 0.000854492 10.3755 1.38366 7.98439 3.84508C5.5933 6.30649 4.25 9.64489 4.25 13.1259C4.25 22.5627 17 35.0009 17 35.0009Z" fill="#F57B20"/>
<path d="M17 17.5009C15.8728 17.5009 14.7918 17.0399 13.9948 16.2194C13.1978 15.399 12.75 14.2862 12.75 13.1259C12.75 11.9655 13.1978 10.8527 13.9948 10.0323C14.7918 9.21179 15.8728 8.75085 17 8.75085C18.1272 8.75085 19.2082 9.21179 20.0052 10.0323C20.8022 10.8527 21.25 11.9655 21.25 13.1259C21.25 14.2862 20.8022 15.399 20.0052 16.2194C19.2082 17.0399 18.1272 17.5009 17 17.5009ZM17 19.6884C18.6908 19.6884 20.3123 18.997 21.5078 17.7662C22.7034 16.5355 23.375 14.8663 23.375 13.1259C23.375 11.3854 22.7034 9.71617 21.5078 8.48547C20.3123 7.25476 18.6908 6.56335 17 6.56335C15.3092 6.56335 13.6877 7.25476 12.4922 8.48547C11.2967 9.71617 10.625 11.3854 10.625 13.1259C10.625 14.8663 11.2967 16.5355 12.4922 17.7662C13.6877 18.997 15.3092 19.6884 17 19.6884Z" fill="#F57B20"/>
</g>
<defs>
<clipPath id="clip0_226_145">
<rect width="34" height="35" fill="white" transform="translate(0 0.000854492)"/>
</clipPath>
</defs>
</svg>
