<svg width="35" height="35" viewBox="0 0 35 35" fill="none" xmlns="http://www.w3.org/2000/svg">
<path d="M16.8164 1.13465C16.5566 1.24402 16.2354 1.5243 16.1123 1.74305C16.0576 1.83875 16.0166 2.67273 15.9961 4.44324L15.9619 7.00672L13.8428 7.0409C11.8398 7.07508 11.71 7.08191 11.4502 7.22547C11.2998 7.30066 11.0947 7.45789 10.9922 7.56726C10.8965 7.6698 10.459 8.47644 10.0146 9.35828L9.22168 10.9511L9.24219 13.4257C9.2627 15.8319 9.26953 15.9003 9.41992 16.2352C9.50879 16.4198 9.66602 16.6932 9.77539 16.83L9.98047 17.0829V18.1493V19.2089L9.59082 19.161C9.37207 19.1268 8.77734 19.1132 8.27148 19.12C7.52637 19.1268 7.21875 19.161 6.67871 19.3046C4.58691 19.8446 2.78906 21.2938 1.83203 23.2079C1.29199 24.2743 1.06641 25.2655 1.06641 26.5233C1.06641 27.5077 1.13477 27.9384 1.41504 28.8134C1.77051 29.9139 2.30371 30.8026 3.1582 31.6913C4.09473 32.662 5.33887 33.3934 6.67871 33.7489C7.2666 33.9061 7.48535 33.9266 8.44238 33.9266C9.21484 33.9335 9.67969 33.8993 10.0146 33.8173C12.4893 33.2499 14.5127 31.5477 15.3809 29.3055C15.4971 28.9979 15.627 28.6766 15.6611 28.5878L15.7227 28.4374H24.3223C31.6436 28.4374 32.9424 28.4237 33.0586 28.3417C33.1816 28.246 33.1885 28.0956 33.209 22.661L33.2227 17.0692L33.4004 16.871C33.9268 16.2421 33.9746 15.9481 33.9746 13.2411V10.9374L33.1816 9.34461C32.7441 8.47644 32.3066 7.6698 32.2109 7.56726C32.1084 7.45789 31.9033 7.30066 31.7529 7.22547C31.4932 7.08191 31.3633 7.07508 29.3604 7.0409L27.2412 7.00672L27.207 4.42957L27.1729 1.85926L26.9609 1.59265C26.8516 1.4491 26.6191 1.26453 26.4551 1.17566L26.1543 1.02527H21.6016C17.6914 1.03211 17.0215 1.04578 16.8164 1.13465ZM26.209 1.98914L26.3867 2.12586V5.54383C26.3867 7.64246 26.3594 9.00965 26.3184 9.09168C26.1816 9.35144 25.9561 9.36512 21.5537 9.36512C17.042 9.36512 16.9736 9.35828 16.8574 9.0575C16.8369 8.99598 16.8164 7.41004 16.8164 5.53699V2.12586L16.9941 1.98914C17.1719 1.84558 17.2266 1.84558 21.6016 1.84558C25.9766 1.84558 26.0312 1.84558 26.209 1.98914ZM14.2188 7.9159C14.2188 7.94324 14.0205 8.55164 13.7881 9.26258L13.3506 10.5614L11.8398 10.5819L10.3291 10.5956L10.8486 9.52234C11.4092 8.36023 11.6211 8.02527 11.8535 7.92957C12.0312 7.85437 14.2188 7.8407 14.2188 7.9159ZM15.9961 8.51062C15.9961 9.03015 16.0234 9.22156 16.1328 9.42664C16.3242 9.81629 16.6387 10.0282 17.165 10.1444C17.3154 10.1786 17.3359 10.2128 17.3086 10.3905L17.2812 10.5956H15.7432C14.4238 10.5956 14.2119 10.5819 14.2393 10.493C14.2666 10.4384 14.4512 9.86414 14.6631 9.21473C14.8682 8.56531 15.0527 7.99109 15.0732 7.94324C15.0938 7.88855 15.2578 7.86121 15.5518 7.86121H15.9961V8.51062ZM28.5127 9.13953C28.7451 9.85047 28.9502 10.4657 28.9707 10.5067C28.9912 10.5751 28.6631 10.5956 27.46 10.5956H25.9219L25.8945 10.3905C25.8672 10.2128 25.8877 10.1786 26.0381 10.1444C26.4688 10.0555 26.8037 9.84363 27.002 9.52234C27.1934 9.22156 27.207 9.16004 27.207 8.53113V7.86121H27.6445H28.082L28.5127 9.13953ZM31.5137 8.03211C31.5957 8.1073 31.9375 8.7157 32.2725 9.38562L32.8809 10.5956L31.3701 10.5819L29.8525 10.5614L29.415 9.26258C29.1826 8.55164 28.9844 7.94324 28.9844 7.90906C28.9844 7.87488 29.5176 7.86121 30.1738 7.87488C31.2471 7.89539 31.377 7.90906 31.5137 8.03211ZM21.1914 10.3905V10.5956H19.6533C18.0332 10.5956 18.04 10.5956 18.1562 10.2948C18.1904 10.1991 18.3955 10.1854 19.6943 10.1854H21.1914V10.3905ZM25.0469 10.2948C25.1631 10.5956 25.1699 10.5956 23.5498 10.5956H22.0117V10.3905V10.1854H23.5088C24.8076 10.1854 25.0127 10.1991 25.0469 10.2948ZM13.1934 13.5897V15.7636L12.9746 16.1327C12.7969 16.4198 12.667 16.5497 12.373 16.7001C12.0449 16.871 11.9424 16.8915 11.5391 16.871C11.1631 16.8505 11.0264 16.8095 10.7871 16.6386C10.4521 16.4061 10.2197 16.0848 10.1172 15.7294C10.0762 15.5927 10.0488 14.6014 10.0488 13.4462V11.4159H11.6211H13.1934V13.5897ZM17.2266 13.4188C17.2266 14.9843 17.2061 15.497 17.124 15.7636C16.6592 17.3153 14.4307 17.2333 14.0889 15.6542C14.041 15.4491 14.0137 14.5057 14.0137 13.3641V11.4159H15.6201H17.2266V13.4188ZM21.1914 13.5145C21.1914 15.5721 21.1846 15.6268 21.0273 15.9618C20.7266 16.6112 20.1934 16.9257 19.4824 16.871C18.9219 16.83 18.4912 16.5565 18.2383 16.0712L18.0469 15.7089V13.5624V11.4159H19.6191H21.1914V13.5145ZM25.1562 13.535C25.1562 15.8798 25.1426 15.955 24.7256 16.3993C24.2744 16.871 23.5156 17.0214 22.9277 16.7548C22.5928 16.5975 22.1963 16.1532 22.0938 15.7977C22.0391 15.6268 22.0117 14.8407 22.0117 13.4735V11.4159H23.584H25.1562V13.535ZM29.1074 13.6649L29.0869 15.9139L28.8818 16.2079C28.752 16.3925 28.5332 16.577 28.3008 16.7001C27.9727 16.871 27.8701 16.8915 27.4668 16.871C27.0908 16.8505 26.9541 16.8095 26.7148 16.6386C26.3799 16.4061 26.1475 16.0848 26.0449 15.7294C26.0039 15.5927 25.9766 14.6014 25.9766 13.4462V11.4159H27.5488H29.1279L29.1074 13.6649ZM33.1543 13.4462C33.1543 14.6014 33.127 15.5927 33.0859 15.7294C32.9834 16.0848 32.751 16.4061 32.416 16.6386C32.1768 16.8095 32.04 16.8505 31.6641 16.871C31.2607 16.8915 31.1582 16.871 30.8301 16.7001C30.5977 16.577 30.3789 16.3925 30.249 16.2079L30.0439 15.9139L30.0234 13.6649L30.0029 11.4159H31.582H33.1543V13.4462ZM14.6152 17.4862C14.9502 17.6434 15.0938 17.6708 15.6543 17.6708C16.2627 17.6708 16.3311 17.6571 16.7412 17.4384C16.9805 17.3085 17.2676 17.0829 17.3838 16.9462L17.5957 16.6932L17.9922 17.0555C18.5322 17.5614 18.9971 17.7255 19.7285 17.6913C20.4053 17.6571 20.9043 17.4384 21.3145 16.994L21.5879 16.6932L21.8887 17.0009C22.3262 17.452 22.8047 17.6571 23.4746 17.6913C24.2061 17.7255 24.6709 17.5614 25.2109 17.0555L25.6074 16.6932L25.8193 16.9462C25.9355 17.0829 26.2227 17.3085 26.4619 17.4384C26.8721 17.6571 26.9404 17.6708 27.5488 17.6708C28.1094 17.6708 28.2529 17.6434 28.5879 17.4862C28.8066 17.3837 29.1143 17.1649 29.2715 17.0009L29.5654 16.7001L29.8594 17.0009C30.0166 17.1718 30.3242 17.3837 30.543 17.4862C30.8916 17.6503 31.0078 17.6708 31.6709 17.6708L32.4023 17.6639V22.6405V27.6171H30.7617H29.1211V24.035C29.1211 20.6102 29.1143 20.4462 28.9912 20.2958L28.8613 20.1317H21.6016H14.3418L14.2119 20.2958C14.1094 20.4257 14.082 20.5624 14.082 21.0204V21.5878L13.6582 21.1776C12.9541 20.5009 11.9766 19.872 11.0947 19.537L10.8008 19.4276V18.5458V17.6639L11.5391 17.6708C12.1953 17.6708 12.3115 17.6503 12.6602 17.4862C12.8789 17.3837 13.1865 17.1718 13.3438 17.0077L13.6309 16.7069L13.9248 17.0077C14.0889 17.1718 14.4033 17.3905 14.6152 17.4862ZM9.41309 19.9677C11.5527 20.2616 13.4668 21.6561 14.4238 23.618C14.9434 24.6776 15.0664 25.2518 15.0664 26.5233C15.0664 27.7948 14.9434 28.369 14.4238 29.4286C12.6875 32.9901 8.22363 34.2343 4.90137 32.0878C4.30664 31.6981 3.51367 30.9462 3.10352 30.3788C2.67969 29.7841 2.21484 28.7792 2.04395 28.0546C1.83203 27.1932 1.83203 25.8534 2.04395 24.9921C2.21484 24.2675 2.67969 23.2626 3.10352 22.6679C3.45215 22.1825 4.26562 21.3827 4.7373 21.0614C6.09766 20.1386 7.7793 19.7421 9.41309 19.9677ZM21.1914 24.2675V27.6171H18.5459H15.8936V26.5028C15.8867 25.5731 15.8662 25.2997 15.7295 24.7938C15.5654 24.1581 15.2578 23.3651 15.0391 22.9823C14.9229 22.7909 14.9023 22.6268 14.9023 21.8817C14.9023 21.4032 14.9229 20.9862 14.9502 20.9657C14.9707 20.9384 16.3857 20.9179 18.0947 20.9179H21.1914V24.2675ZM28.2871 24.2811L28.3008 27.6171H25.1562H22.0117V24.2675V20.9179L25.1426 20.9315L28.2666 20.952L28.2871 24.2811Z" fill="#F57B20"/>
<path d="M20.9864 2.33105C20.5216 2.51562 20.1661 3.13769 20.1661 3.76659C20.1661 4.01269 20.1661 4.01269 19.8243 4.06054C19.4346 4.11523 19.0382 4.40234 18.8946 4.75097C18.7647 5.07226 18.3682 7.75878 18.4161 8.01855C18.4776 8.33984 18.8878 8.79784 19.1954 8.88671C19.3595 8.93456 20.2345 8.95507 21.7452 8.9414L24.0421 8.92089L24.295 8.72265C24.4454 8.61327 24.6163 8.38769 24.6983 8.20995L24.835 7.8955L24.6163 6.42577C24.4932 5.61913 24.3497 4.86034 24.3018 4.75097C24.1241 4.3203 23.6319 4.0332 23.0987 4.0332H22.8321V3.65722C22.8321 2.78905 22.3262 2.24902 21.5196 2.26269C21.3214 2.26269 21.0821 2.29687 20.9864 2.33105ZM21.9024 3.22655C21.9639 3.31542 22.0118 3.5205 22.0118 3.70507V4.0332H21.4923H20.9659L21.0001 3.6914C21.0411 3.2539 21.1983 3.07616 21.5401 3.07616C21.7315 3.07616 21.8272 3.11718 21.9024 3.22655ZM20.1934 5.09277C20.255 5.42773 20.5011 5.57812 20.7608 5.45507C20.9112 5.38671 20.9591 5.31152 20.9727 5.10644L20.9932 4.85351H21.5059C22.005 4.85351 22.0118 4.85351 22.0118 5.02441C22.0118 5.2705 22.3126 5.55761 22.5108 5.50292C22.7159 5.4414 22.8321 5.27734 22.8321 5.04491C22.8321 4.86718 22.8526 4.85351 23.0919 4.85351C23.2628 4.85351 23.3995 4.90136 23.4679 4.97655C23.543 5.05859 23.6456 5.54394 23.7891 6.45312C23.9805 7.69726 23.9874 7.82714 23.8917 7.9707L23.7891 8.13476H21.6085C19.5304 8.13476 19.4278 8.12792 19.3116 7.99804C19.1954 7.86816 19.2022 7.81347 19.4073 6.48046C19.6329 5.03808 19.7012 4.85351 19.9952 4.85351C20.1182 4.85351 20.1593 4.90136 20.1934 5.09277Z" fill="#F57B20"/>
<path d="M3.98542 22.9755C3.86237 23.0985 3.87604 23.4813 4.00593 23.5907C4.06061 23.6385 4.27936 23.6864 4.47761 23.7069C4.68268 23.7206 4.88093 23.7753 4.91511 23.8163C4.94928 23.8573 5.28425 24.9784 5.66022 26.3046C6.04303 27.6307 6.40534 28.8202 6.4737 28.9364C6.54206 29.0594 6.72663 29.2167 6.88385 29.2919C7.16413 29.4286 7.16413 29.4354 7.12995 29.7157C7.07526 30.119 7.25983 30.577 7.57428 30.8163C7.77936 30.9735 7.8819 31.0008 8.27155 31.0008C8.6612 31.0008 8.76374 30.9735 8.96882 30.8163C9.28327 30.577 9.46784 30.119 9.40632 29.7362L9.3653 29.4628H9.74128H10.1173L10.0762 29.7635C10.0147 30.1669 10.1446 30.5018 10.459 30.7889C10.9649 31.2469 11.71 31.1581 12.1407 30.5838C12.3116 30.3651 12.3389 30.2694 12.3389 29.9003V29.4764L12.5987 29.4422C13.0635 29.3807 13.2344 29.1073 13.0157 28.7928L12.9132 28.6424H10.1309C8.59968 28.6424 7.31452 28.6151 7.26667 28.5878C7.19147 28.5399 6.97272 28.0204 6.97272 27.8837C6.97272 27.8495 8.08698 27.8221 9.45417 27.8221C11.334 27.8221 11.963 27.8016 12.0518 27.7333C12.1612 27.6512 13.0567 24.7665 13.0567 24.4862C13.0567 24.4178 13.002 24.3085 12.9337 24.2469C12.8174 24.1444 12.4688 24.1307 9.34479 24.1307H5.88581L5.78327 23.7684C5.71491 23.536 5.59186 23.3309 5.43464 23.1737C5.20221 22.9481 5.1612 22.9344 4.628 22.9139C4.23835 22.8934 4.04011 22.9139 3.98542 22.9755ZM8.68171 25.2587V25.5663H7.48542H6.29596L6.2276 25.3065C6.18659 25.1698 6.15241 25.0331 6.15241 24.9989C6.15241 24.9715 6.71979 24.951 7.41706 24.951H8.68171V25.2587ZM12.0587 25.1014C11.9014 25.6073 12.0313 25.5663 10.6983 25.5663H9.50202V25.2587V24.951H10.8077H12.1065L12.0587 25.1014ZM8.68171 26.6942V27.0018H7.6905H6.70612L6.63776 26.7421C6.59675 26.6053 6.56257 26.4686 6.56257 26.4344C6.56257 26.4071 7.04108 26.3866 7.62214 26.3866H8.68171V26.6942ZM11.5938 26.6737L11.5118 26.9676L10.5069 26.9881L9.50202 27.0087V26.6942V26.3866H10.5889H11.6827L11.5938 26.6737ZM8.48346 29.661C8.62018 29.7704 8.63385 29.8182 8.57917 29.9823C8.51764 30.1463 8.46979 30.1805 8.27155 30.1805C8.07331 30.1805 8.02546 30.1463 7.96393 29.9823C7.90925 29.8182 7.92292 29.7704 8.05964 29.661C8.1485 29.5926 8.24421 29.5311 8.27155 29.5311C8.29889 29.5311 8.3946 29.5926 8.48346 29.661ZM11.4434 29.7088C11.5049 29.7635 11.5528 29.8661 11.5528 29.9208C11.5528 30.0643 11.3546 30.2831 11.2247 30.2831C11.0743 30.2831 10.8692 30.078 10.8692 29.9344C10.8692 29.7772 11.0469 29.5995 11.211 29.5995C11.2794 29.5995 11.3887 29.6473 11.4434 29.7088Z" fill="#F57B20"/>
</svg>
