<svg width="13" height="10" viewBox="0 0 13 10" fill="none" xmlns="http://www.w3.org/2000/svg">
<path d="M10.5536 1.04669C10.752 0.849998 11.0199 0.7393 11.2992 0.738529C11.5786 0.737759 11.8471 0.846977 12.0466 1.04257C12.2461 1.23817 12.3606 1.50442 12.3654 1.78377C12.3702 2.06313 12.2648 2.33313 12.0721 2.53541L6.41209 9.61037C6.31482 9.71514 6.19741 9.79923 6.0669 9.85759C5.93638 9.91595 5.79544 9.9474 5.65249 9.95005C5.50955 9.95269 5.36754 9.92649 5.23495 9.873C5.10236 9.81951 4.98193 9.73983 4.88084 9.63873L1.13068 5.88715C1.02621 5.7898 0.942412 5.67241 0.884292 5.54197C0.826173 5.41153 0.794921 5.27072 0.792402 5.12794C0.789883 4.98516 0.816148 4.84334 0.86963 4.71093C0.923112 4.57852 1.00271 4.45824 1.10369 4.35726C1.20467 4.25629 1.32495 4.17668 1.45735 4.1232C1.58976 4.06972 1.73159 4.04346 1.87437 4.04597C2.01715 4.04849 2.15795 4.07975 2.28839 4.13787C2.41883 4.19598 2.53623 4.27978 2.63358 4.38426L5.60251 7.35177L10.5266 1.07788L10.5536 1.04669Z" fill="white"/>
</svg>
