<svg width="60" height="60" viewBox="0 0 94 94" fill="none" xmlns="http://www.w3.org/2000/svg">
<path d="M3.125 0.25C2.2962 0.25 1.50134 0.57924 0.915291 1.16529C0.32924 1.75134 0 2.5462 0 3.375C0 4.2038 0.32924 4.99866 0.915291 5.58471C1.50134 6.17076 2.2962 6.5 3.125 6.5H10.0625L12.5687 16.5438L21.9312 66.45C22.0653 67.1661 22.4453 67.8129 23.0057 68.2785C23.566 68.7441 24.2714 68.9993 25 69H31.25C27.9348 69 24.7554 70.317 22.4112 72.6612C20.067 75.0054 18.75 78.1848 18.75 81.5C18.75 84.8152 20.067 87.9946 22.4112 90.3388C24.7554 92.683 27.9348 94 31.25 94C34.5652 94 37.7446 92.683 40.0888 90.3388C42.433 87.9946 43.75 84.8152 43.75 81.5C43.75 78.1848 42.433 75.0054 40.0888 72.6612C37.7446 70.317 34.5652 69 31.25 69H75C71.6848 69 68.5054 70.317 66.1612 72.6612C63.817 75.0054 62.5 78.1848 62.5 81.5C62.5 84.8152 63.817 87.9946 66.1612 90.3388C68.5054 92.683 71.6848 94 75 94C78.3152 94 81.4946 92.683 83.8388 90.3388C86.183 87.9946 87.5 84.8152 87.5 81.5C87.5 78.1848 86.183 75.0054 83.8388 72.6612C81.4946 70.317 78.3152 69 75 69H81.25C81.9785 68.9993 82.684 68.7441 83.2443 68.2785C83.8046 67.8129 84.1847 67.1661 84.3187 66.45L93.6937 16.45C93.7782 15.999 93.7622 15.5349 93.6471 15.0907C93.5319 14.6466 93.3204 14.2332 93.0275 13.88C92.7345 13.5268 92.3674 13.2425 91.9522 13.0472C91.537 12.8519 91.0838 12.7504 90.625 12.75H18.0625L15.5312 2.61875C15.3626 1.9424 14.9726 1.34187 14.4233 0.912655C13.8741 0.483442 13.1971 0.250193 12.5 0.25H3.125ZM37.5 81.5C37.5 83.1576 36.8415 84.7473 35.6694 85.9194C34.4973 87.0915 32.9076 87.75 31.25 87.75C29.5924 87.75 28.0027 87.0915 26.8306 85.9194C25.6585 84.7473 25 83.1576 25 81.5C25 79.8424 25.6585 78.2527 26.8306 77.0806C28.0027 75.9085 29.5924 75.25 31.25 75.25C32.9076 75.25 34.4973 75.9085 35.6694 77.0806C36.8415 78.2527 37.5 79.8424 37.5 81.5ZM81.25 81.5C81.25 83.1576 80.5915 84.7473 79.4194 85.9194C78.2473 87.0915 76.6576 87.75 75 87.75C73.3424 87.75 71.7527 87.0915 70.5806 85.9194C69.4085 84.7473 68.75 83.1576 68.75 81.5C68.75 79.8424 69.4085 78.2527 70.5806 77.0806C71.7527 75.9085 73.3424 75.25 75 75.25C76.6576 75.25 78.2473 75.9085 79.4194 77.0806C80.5915 78.2527 81.25 79.8424 81.25 81.5ZM70.9625 33.7125L52.2125 52.4625C51.9222 52.7535 51.5774 52.9844 51.1977 53.142C50.818 53.2995 50.411 53.3806 50 53.3806C49.589 53.3806 49.1819 53.2995 48.8023 53.142C48.4226 52.9844 48.0778 52.7535 47.7875 52.4625L38.4125 43.0875C38.1219 42.797 37.8915 42.452 37.7342 42.0724C37.577 41.6928 37.496 41.2859 37.496 40.875C37.496 40.4641 37.577 40.0572 37.7342 39.6776C37.8915 39.298 38.1219 38.953 38.4125 38.6625C38.703 38.3719 39.048 38.1415 39.4276 37.9842C39.8072 37.827 40.2141 37.7461 40.625 37.7461C41.0359 37.7461 41.4428 37.827 41.8224 37.9842C42.202 38.1415 42.5469 38.3719 42.8375 38.6625L50 45.8313L66.5375 29.2875C66.828 28.9969 67.173 28.7665 67.5526 28.6092C67.9322 28.452 68.3391 28.3711 68.75 28.3711C69.1609 28.3711 69.5678 28.452 69.9474 28.6092C70.327 28.7665 70.6719 28.9969 70.9625 29.2875C71.253 29.578 71.4835 29.923 71.6408 30.3026C71.798 30.6822 71.8789 31.0891 71.8789 31.5C71.8789 31.9109 71.798 32.3178 71.6408 32.6974C71.4835 33.077 71.253 33.422 70.9625 33.7125Z" fill="#FF4E01"/>
</svg>
