<svg width="113" height="115" viewBox="0 0 113 115" fill="none" xmlns="http://www.w3.org/2000/svg">
<rect x="18" y="19" width="76" height="75" fill="white"/>
<path d="M112.128 57.2331C112.128 42.054 106.222 27.4965 95.7076 16.7632C85.1935 6.0299 70.9334 0 56.0642 0C41.1951 0 26.9349 6.0299 16.4208 16.7632C5.90675 27.4965 0 42.054 0 57.2331C0 72.4123 5.90675 86.9698 16.4208 97.7031C26.9349 108.436 41.1951 114.466 56.0642 114.466C70.9334 114.466 85.1935 108.436 95.7076 97.7031C106.222 86.9698 112.128 72.4123 112.128 57.2331ZM59.5682 82.2726C59.5682 83.2213 59.1991 84.1312 58.5419 84.802C57.8848 85.4728 56.9935 85.8497 56.0642 85.8497C55.1349 85.8497 54.2436 85.4728 53.5865 84.802C52.9294 84.1312 52.5602 83.2213 52.5602 82.2726V40.8287L37.521 56.1886C36.863 56.8603 35.9706 57.2376 35.0401 57.2376C34.1096 57.2376 33.2173 56.8603 32.5593 56.1886C31.9013 55.5169 31.5317 54.606 31.5317 53.6561C31.5317 52.7062 31.9013 51.7952 32.5593 51.1235L53.5834 29.6611C53.9089 29.3279 54.2955 29.0637 54.7212 28.8833C55.1469 28.703 55.6033 28.6102 56.0642 28.6102C56.5251 28.6102 56.9815 28.703 57.4072 28.8833C57.8329 29.0637 58.2196 29.3279 58.5451 29.6611L79.5691 51.1235C80.2271 51.7952 80.5967 52.7062 80.5967 53.6561C80.5967 54.606 80.2271 55.5169 79.5691 56.1886C78.9112 56.8603 78.0188 57.2376 77.0883 57.2376C76.1578 57.2376 75.2654 56.8603 74.6075 56.1886L59.5682 40.8287V82.2726Z" fill="#FF4E02"/>
</svg>
