<svg width="26" height="24" viewBox="0 0 26 24" fill="none" xmlns="http://www.w3.org/2000/svg">
<path id="Vector" d="M12.96 11.8069C14.6786 11.8069 16.3268 11.1849 17.5421 10.0778C18.7573 8.97071 19.44 7.46914 19.44 5.90345C19.44 4.33776 18.7573 2.83619 17.5421 1.72908C16.3268 0.621969 14.6786 0 12.96 0C11.2414 0 9.59318 0.621969 8.37795 1.72908C7.16271 2.83619 6.48 4.33776 6.48 5.90345C6.48 7.46914 7.16271 8.97071 8.37795 10.0778C9.59318 11.1849 11.2414 11.8069 12.96 11.8069ZM17.28 5.90345C17.28 6.94724 16.8249 7.94829 16.0147 8.68636C15.2045 9.42444 14.1057 9.83908 12.96 9.83908C11.8143 9.83908 10.7155 9.42444 9.9053 8.68636C9.09514 7.94829 8.64 6.94724 8.64 5.90345C8.64 4.85965 9.09514 3.85861 9.9053 3.12054C10.7155 2.38246 11.8143 1.96782 12.96 1.96782C14.1057 1.96782 15.2045 2.38246 16.0147 3.12054C16.8249 3.85861 17.28 4.85965 17.28 5.90345ZM25.92 21.646C25.92 23.6138 23.76 23.6138 23.76 23.6138H2.16C2.16 23.6138 0 23.6138 0 21.646C0 19.6782 2.16 13.7747 12.96 13.7747C23.76 13.7747 25.92 19.6782 25.92 21.646ZM23.76 21.6381C23.7578 21.154 23.4274 19.6978 21.9629 18.3637C20.5546 17.0806 17.9042 15.7425 12.96 15.7425C8.01576 15.7425 5.36544 17.0806 3.95712 18.3637C2.49264 19.6978 2.16432 21.154 2.16 21.6381H23.76Z" fill="#F57B20"/>
</svg>
