<svg width="35" height="35" viewBox="0 0 35 35" fill="none" xmlns="http://www.w3.org/2000/svg">
<path d="M19.1495 0.742963C18.712 0.267244 18.1187 0 17.5 0C16.8813 0 16.288 0.267244 15.8505 0.742963L0.342112 17.6076C0.233649 17.7255 0.147612 17.8656 0.0889119 18.0197C0.0302123 18.1738 0 18.339 0 18.5059C0 18.6727 0.0302123 18.8379 0.0889119 18.992C0.147612 19.1462 0.233649 19.2862 0.342112 19.4042C0.561162 19.6424 0.858258 19.7763 1.16804 19.7763C1.32143 19.7763 1.47332 19.7434 1.61503 19.6796C1.75675 19.6157 1.88551 19.5221 1.99397 19.4042L3.50118 17.7624V31.1937C3.50118 32.2032 3.8699 33.1713 4.52622 33.8852C5.18254 34.599 6.0727 35 7.00088 35H27.9991C28.9273 35 29.8175 34.599 30.4738 33.8852C31.1301 33.1713 31.4988 32.2032 31.4988 31.1937V17.7624L33.006 19.4042C33.2251 19.6424 33.5222 19.7763 33.832 19.7763C34.1417 19.7763 34.4388 19.6424 34.6579 19.4042C34.8769 19.1659 35 18.8428 35 18.5059C35 18.1689 34.8769 17.8458 34.6579 17.6076L29.1657 11.6367V3.28052C29.1657 2.94402 29.0428 2.6213 28.824 2.38336C28.6052 2.14542 28.3085 2.01174 27.9991 2.01174H25.666C25.3566 2.01174 25.0599 2.14542 24.8411 2.38336C24.6223 2.6213 24.4994 2.94402 24.4994 3.28052V6.56158L19.1495 0.742963ZM29.1657 15.2248V31.1937C29.1657 31.5302 29.0428 31.8529 28.824 32.0908C28.6052 32.3288 28.3085 32.4624 27.9991 32.4624H7.00088C6.69149 32.4624 6.39477 32.3288 6.176 32.0908C5.95722 31.8529 5.83432 31.5302 5.83432 31.1937V15.2248L17.5 2.53702L29.1657 15.2248Z" fill="#F57B20"/>
</svg>
