<svg width="29" height="29" viewBox="0 0 22 21" fill="none" xmlns="http://www.w3.org/2000/svg">
<path d="M16.8855 14.617L21.1685 18.899L19.7535 20.314L15.4715 16.031C13.8782 17.3082 11.8965 18.0029 9.85449 18C4.88649 18 0.854492 13.968 0.854492 9C0.854492 4.032 4.88649 0 9.85449 0C14.8225 0 18.8545 4.032 18.8545 9C18.8574 11.042 18.1627 13.0237 16.8855 14.617ZM14.8795 13.875C16.1486 12.5699 16.8574 10.8204 16.8545 9C16.8545 5.132 13.7215 2 9.85449 2C5.98649 2 2.85449 5.132 2.85449 9C2.85449 12.867 5.98649 16 9.85449 16C11.6749 16.0029 13.4244 15.2941 14.7295 14.025L14.8795 13.875Z" fill="#F57B20"/>
</svg>
