<svg width="35" height="35" viewBox="0 0 35 35" fill="none" xmlns="http://www.w3.org/2000/svg">
<g clip-path="url(#clip0_226_157)">
<path d="M24.612 0.14874C24.8261 0.272855 24.9918 0.465905 25.082 0.696353C25.1722 0.926801 25.1815 1.18102 25.1086 1.41749L21.1689 14.2187H28.4379C28.6516 14.2187 28.8605 14.2811 29.039 14.3984C29.2176 14.5158 29.3578 14.6828 29.4425 14.8789C29.5272 15.075 29.5526 15.2917 29.5156 15.502C29.4786 15.7124 29.3807 15.9074 29.2342 16.0628L11.7342 34.6566C11.5649 34.8366 11.3395 34.954 11.0949 34.9896C10.8503 35.0252 10.6009 34.9769 10.3873 34.8526C10.1736 34.7283 10.0084 34.5353 9.91854 34.305C9.82866 34.0748 9.81941 33.8209 9.89231 33.5847L13.832 20.7812H6.56294C6.34932 20.7813 6.14035 20.7189 5.96182 20.6015C5.7833 20.4842 5.64304 20.3172 5.55836 20.1211C5.47368 19.9249 5.44828 19.7083 5.4853 19.4979C5.52232 19.2875 5.62014 19.0926 5.76669 18.9372L23.2667 0.343427C23.4358 0.163613 23.6608 0.0462961 23.905 0.0105522C24.1493 -0.0251917 24.3984 0.0227395 24.612 0.146552V0.14874ZM9.09387 18.5937H15.3129C15.4841 18.5937 15.6529 18.6338 15.8057 18.7109C15.9585 18.788 16.0911 18.8999 16.1929 19.0376C16.2946 19.1752 16.3625 19.3349 16.3913 19.5036C16.4201 19.6723 16.4089 19.8454 16.3586 20.0091L13.3661 29.7281L25.9048 16.4062H19.6879C19.5168 16.4063 19.348 16.3661 19.1952 16.289C19.0423 16.212 18.9097 16.1001 18.808 15.9624C18.7063 15.8247 18.6383 15.6651 18.6095 15.4964C18.5808 15.3277 18.592 15.1545 18.6423 14.9909L21.6348 5.27186L9.09387 18.5937Z" fill="#F57B20"/>
</g>
<defs>
<clipPath id="clip0_226_157">
<rect width="35" height="35" fill="white"/>
</clipPath>
</defs>
</svg>
