<svg width="35" height="27" viewBox="0 0 35 27" fill="none" xmlns="http://www.w3.org/2000/svg">
<g clip-path="url(#clip0_263_978)">
<path d="M35.0003 27.6772C34.8042 27.9083 34.6321 28.1868 34.2854 28.1627H3.44966C3.23477 28.2515 2.73478 27.7867 2.73478 27.6427V25.3362C2.20825 25.8484 1.55844 27.7781 0.983108 28.0808C0.477127 28.3472 -0.151282 27.8092 0.0327888 27.2616L2.88375 22.2157L12.702 1.60502C12.8338 1.37135 13.0333 1.20838 13.3047 1.17389C16.4048 2.13014 19.1171 2.71906 22.2994 1.70159C22.8165 1.53604 23.7908 0.911762 24.2462 1.32996L34.9994 22.5131V27.6764L35.0003 27.6772ZM23.7891 21.963H33.1544L23.474 2.74924C21.1607 3.64858 18.9142 3.83742 16.4733 3.4106C16.3252 3.38473 14.6968 2.97343 14.6968 3.06569L15.7405 5.28515C16.4622 5.57315 17.4108 5.57401 18.1154 5.81976C18.7712 6.04825 18.7361 6.96656 18.118 7.12953C17.761 7.22352 17.0666 6.99416 16.6651 6.93638C16.5769 6.92345 16.529 6.80705 16.5452 6.98898L23.7899 21.9647L23.7891 21.963ZM22.6958 26.7822V22.7546L14.0145 4.88851V18.589L18.4741 19.6392C18.6539 19.6737 19.0049 19.9634 19.0049 20.1385V26.7822H22.6966H22.6958ZM12.6472 18.589V4.95749L4.10204 22.7546V26.7822H7.65675V19.9324C7.65675 19.7599 8.00691 19.465 8.18756 19.434L12.6472 18.5899V18.589ZM9.02401 24.9232L11.8955 20.1393L9.02401 20.655V24.9232ZM17.6377 20.861C16.8106 20.7033 15.9476 20.3989 15.1249 20.2592C15.0547 20.2471 14.8347 20.2023 14.8347 20.2764L17.6377 24.9232V20.861ZM9.57108 26.7822H17.0906L13.2979 20.517L9.57194 26.7822H9.57108ZM33.633 23.3401H24.8147L27.4465 26.7822H33.633V23.3401ZM25.6349 26.7822L24.063 24.7171V26.7822H25.6349Z" fill="#F57B20"/>
</g>
<defs>
<clipPath id="clip0_263_978">
<rect width="35" height="27" fill="white"/>
</clipPath>
</defs>
</svg>
