<svg width="55" height="52" viewBox="0 0 55 52" fill="none" xmlns="http://www.w3.org/2000/svg">
<rect x="1.85449" y="1" width="52" height="50" rx="25" stroke="#F57B20" stroke-width="2"/>
<path d="M33.8855 30.617L38.1685 34.899L36.7535 36.314L32.4715 32.031C30.8782 33.3082 28.8965 34.0029 26.8545 34C21.8865 34 17.8545 29.968 17.8545 25C17.8545 20.032 21.8865 16 26.8545 16C31.8225 16 35.8545 20.032 35.8545 25C35.8574 27.042 35.1627 29.0237 33.8855 30.617ZM31.8795 29.875C33.1486 28.5699 33.8574 26.8204 33.8545 25C33.8545 21.132 30.7215 18 26.8545 18C22.9865 18 19.8545 21.132 19.8545 25C19.8545 28.867 22.9865 32 26.8545 32C28.6749 32.0029 30.4244 31.2941 31.7295 30.025L31.8795 29.875Z" fill="#F57B20"/>
</svg>
