<svg width="35" height="35" viewBox="0 0 35 35" fill="none" xmlns="http://www.w3.org/2000/svg">
<path d="M19.0384 2.21479C18.1634 2.38569 17.2611 2.75483 16.5433 3.23335C16.0375 3.56831 5.7904 13.8359 5.40758 14.3896C4.97692 15.0117 4.77184 15.4287 4.55993 16.1054C4.18395 17.2949 4.16344 18.4433 4.48473 19.6396C4.5736 19.9882 4.6693 20.33 4.68981 20.4052C4.72399 20.5214 4.65563 20.5761 4.25915 20.747C2.91247 21.3281 1.63415 22.6201 1.06676 23.9736C0.670279 24.9169 0.581412 25.3818 0.588248 26.5234C0.588248 27.3984 0.615591 27.6787 0.738638 28.1298C1.35387 30.372 3.07653 32.0742 5.33239 32.6826C6.07751 32.8876 7.56774 32.9081 8.28551 32.7236C9.57067 32.4023 10.5756 31.8349 11.4506 30.9394C11.9427 30.4335 12.6468 29.4081 12.6468 29.1962C12.6468 29.0664 12.7699 29.1142 12.8177 29.2578C12.9203 29.579 13.6927 30.6318 14.1576 31.0761C14.7728 31.6572 15.1351 31.9169 15.8734 32.2656C16.8031 32.7099 17.3773 32.833 18.5257 32.8398C19.2435 32.8398 19.6468 32.8056 19.9886 32.7236C21.0687 32.4501 21.9847 31.9648 22.8597 31.1992C23.1605 30.9257 25.5873 28.5263 28.2396 25.8671C33.2093 20.8769 33.4554 20.6035 33.8724 19.6533C33.9681 19.4345 34.1322 18.997 34.2279 18.6689C34.392 18.1425 34.4056 17.9716 34.4125 16.9872C34.4125 15.7089 34.3031 15.1962 33.8109 14.1845C32.9564 12.4345 31.4457 11.2382 29.4769 10.7529C28.8002 10.582 27.3441 10.6025 26.6263 10.7871C26.3256 10.8622 26.0726 10.9238 26.0658 10.9169C26.059 10.9101 26.1273 10.6503 26.223 10.3359C26.5443 9.20795 26.5853 8.18256 26.3392 7.07514C25.8197 4.73041 23.9466 2.83686 21.6019 2.28999C20.9252 2.13276 19.6537 2.09858 19.0384 2.21479ZM21.4379 3.34956C22.3334 3.58198 23.0306 3.95112 23.7416 4.58002L24.0697 4.87397L22.9076 6.04975C21.6498 7.30756 21.6019 7.39643 21.8822 7.7519C21.9847 7.88178 22.0804 7.92963 22.2718 7.92963C22.4974 7.92963 22.6 7.84077 23.598 6.85639C24.8422 5.61909 24.7259 5.63959 25.0814 6.6103C25.3685 7.39643 25.4574 7.96381 25.4095 8.77729C25.3412 9.89838 25.0131 10.8212 24.3773 11.6621C24.2132 11.8876 22.4632 13.6513 20.4945 15.5927L16.9193 19.1201L16.9125 18.0537C16.9125 17.1923 16.8851 16.8915 16.7689 16.4746L16.6254 15.9619L17.5756 15.0048C18.4506 14.123 18.5257 14.0273 18.5257 13.7949C18.5257 13.6035 18.4847 13.5078 18.348 13.4052C18.0062 13.1386 17.8832 13.1933 16.9877 14.082L16.1605 14.9023L15.8324 14.4306C15.2377 13.5556 14.1781 12.6601 13.2279 12.2294C12.3119 11.8124 11.8334 11.7236 10.5824 11.7236H9.43395L10.6576 10.4999L11.8812 9.27631L12.8519 9.41987C13.3851 9.49506 13.8773 9.54291 13.9388 9.52241C14.0004 9.5019 15.0531 8.48334 16.2904 7.25287C18.4164 5.13373 18.5257 5.01069 18.5257 4.77143C18.5257 4.58002 18.4847 4.48432 18.348 4.38178C17.972 4.081 17.9652 4.081 15.6888 6.35053C13.7064 8.33295 13.556 8.46284 13.3646 8.43549C12.7767 8.33295 12.6674 8.49018 14.7386 6.41205C15.7845 5.35932 16.8031 4.38178 16.9945 4.23823C17.6029 3.78022 18.3959 3.43159 19.2435 3.25385C19.6742 3.16499 20.932 3.21967 21.4379 3.34956ZM29.6341 11.8945C29.9007 11.9765 30.2015 12.0927 30.3109 12.1474L30.5091 12.2499L28.2396 14.5195C25.7855 16.9804 25.7855 16.9736 26.1478 17.329C26.2504 17.4384 26.3871 17.4999 26.5306 17.4999C26.7357 17.4999 26.9886 17.2675 29.0941 15.1689L31.432 12.8378L31.7533 13.1318C32.43 13.7607 33.059 14.8544 33.264 15.7773L33.3802 16.2831L32.0677 17.5956C30.6459 19.0175 30.5912 19.1132 30.933 19.4482C31.2474 19.7695 31.3841 19.7011 32.3822 18.7167C33.3871 17.7187 33.4144 17.7187 33.1205 18.6415C32.9427 19.2226 32.6078 19.8173 32.1498 20.3915C31.9925 20.583 30.2836 22.3261 28.3558 24.247L24.849 27.7539L24.8695 26.708C24.89 25.7851 24.8763 25.6005 24.7259 25.0126C24.6302 24.6503 24.4457 24.1308 24.3158 23.8505L24.0834 23.3447L25.0267 22.3808C25.8197 21.581 25.9769 21.3896 25.9769 21.2187C25.9769 20.9247 25.7513 20.7128 25.4506 20.7128C25.225 20.7128 25.1224 20.788 24.3431 21.5673L23.475 22.4218L23.0033 21.9638C22.2718 21.2665 21.1507 20.6103 20.3441 20.4121C20.1459 20.3642 20.1664 20.3437 21.4994 19.0039C22.7504 17.7392 22.8461 17.6298 22.805 17.4521C22.7504 17.2197 22.4632 16.9531 22.265 16.9531C22.1693 16.9531 21.6088 17.4589 20.5082 18.5527L18.9017 20.1523L18.1156 20.1865L17.3295 20.2206L21.0892 16.5019C23.1605 14.458 25.0131 12.6738 25.2181 12.5302C25.6761 12.2226 26.3802 11.9218 26.9476 11.7919C27.597 11.6415 29.0189 11.6962 29.6341 11.8945ZM11.8881 12.8857C13.5765 13.289 15.0189 14.6152 15.5931 16.2831C16.0853 17.7187 15.9691 19.1611 15.2582 20.5419C14.9164 21.2119 13.7611 22.3671 13.0912 22.7089C12.1957 23.1738 11.7172 23.2763 10.5619 23.2763C9.61852 23.2695 9.48864 23.2558 8.98962 23.0849C7.31481 22.497 6.12536 21.3076 5.56481 19.6533C5.42126 19.2226 5.3734 18.9355 5.34606 18.2792C5.30504 17.2128 5.42809 16.6181 5.89294 15.6542C6.20055 15.0253 6.30993 14.8681 6.86364 14.3212C7.74547 13.4531 8.5111 13.0361 9.67321 12.8105C10.2406 12.7011 11.2523 12.7353 11.8881 12.8857ZM19.8177 21.3691C20.057 21.4238 20.5013 21.5878 20.809 21.7314C22.1625 22.3671 23.0922 23.4267 23.5912 24.8896C23.7963 25.4843 23.8168 25.6005 23.8168 26.455C23.8236 27.5146 23.7347 27.9521 23.3177 28.8134C22.7093 30.0917 21.6429 31.0419 20.2552 31.541C19.6742 31.746 19.6127 31.7529 18.5599 31.7529C17.5414 31.7529 17.432 31.7392 16.9193 31.5615C15.2103 30.9599 13.9457 29.6337 13.4535 27.9179C13.2552 27.2206 13.2347 25.9081 13.4193 25.2246C13.5697 24.6503 14.0756 23.6318 14.4037 23.2421C15.7777 21.5878 17.7806 20.8974 19.8177 21.3691ZM5.50329 21.8203C5.76305 22.2099 6.52868 22.955 6.98669 23.2558C8.21032 24.0761 9.61852 24.4726 10.9515 24.3769C11.2797 24.3564 11.5873 24.329 11.6351 24.3222C11.6898 24.3085 11.7992 24.5205 11.9222 24.8828C12.1136 25.4228 12.1273 25.539 12.1273 26.455C12.1341 27.5966 12.0453 28.0068 11.6215 28.8818C10.3773 31.4453 7.22594 32.5185 4.59411 31.2744C3.33629 30.6796 2.32458 29.538 1.88708 28.2324C1.5111 27.1044 1.5111 25.997 1.8734 24.8486C2.12633 24.0488 2.4818 23.4951 3.17907 22.791C3.69176 22.2783 3.90368 22.121 4.43688 21.8544C4.78551 21.6767 5.12731 21.5331 5.19567 21.5331C5.25719 21.5331 5.40075 21.663 5.50329 21.8203Z" fill="#F57B20"/>
<path d="M18.4026 7.40323C17.8489 7.95694 17.7737 8.18937 18.0676 8.4628C18.3684 8.74308 18.5872 8.66788 19.1272 8.10734C19.6741 7.53995 19.7356 7.35538 19.4485 7.07511C19.1614 6.78116 18.9631 6.84269 18.4026 7.40323Z" fill="#F57B20"/>
<path d="M15.9482 9.86426C15.1963 10.6162 14.834 11.0264 14.834 11.1221C14.834 11.3682 15.1211 11.6416 15.374 11.6416C15.5723 11.6416 15.7295 11.5186 16.6865 10.5547C17.8691 9.3584 17.9375 9.24902 17.6025 8.9209C17.2744 8.58594 17.165 8.64746 15.9482 9.86426Z" fill="#F57B20"/>
<path d="M9.57043 13.9179C8.96203 14.0752 8.21007 14.4785 7.81359 14.8613C7.3966 15.2715 7.34875 15.4902 7.62218 15.7568C7.86828 16.0097 8.11437 15.9756 8.51086 15.6474C9.25597 15.0254 10.1993 14.7519 11.0812 14.8955C11.6691 14.9912 12.1407 15.2031 12.6739 15.6201C13.1251 15.9687 13.3644 16.0097 13.59 15.7705C13.8497 15.497 13.795 15.2099 13.4191 14.8613C13.0021 14.4785 12.1818 14.0478 11.6144 13.9111C11.0675 13.7881 10.0626 13.7881 9.57043 13.9179Z" fill="#F57B20"/>
<path d="M11.8817 17.6366C11.7586 17.7323 11.6971 17.8622 11.6629 18.0878C11.5946 18.6278 11.1434 19.0721 10.6717 19.0721C10.1522 19.0721 9.90608 19.6805 10.2889 20.0155C10.4598 20.1591 10.5282 20.1727 10.8289 20.1317C11.8338 20.0018 12.6131 19.2157 12.6951 18.245C12.7293 17.8895 12.7157 17.8348 12.5584 17.6776C12.3465 17.4657 12.1141 17.452 11.8817 17.6366Z" fill="#F57B20"/>
<path d="M17.6029 22.3877C16.7347 22.6064 15.9554 23.0645 15.4154 23.666C14.2875 24.9238 14.014 26.8105 14.7386 28.3418C15.3949 29.7295 16.9671 30.7549 18.4437 30.7617C19.1957 30.7617 19.3187 29.8184 18.5804 29.709C18.4574 29.6885 18.2045 29.6611 18.013 29.6406C17.1791 29.5449 16.1332 28.7656 15.723 27.9385C14.7591 25.9561 15.9964 23.666 18.1908 23.3652C18.8539 23.2764 19.0726 23.1396 19.0726 22.7979C19.0726 22.4492 18.8402 22.2852 18.348 22.292C18.1293 22.292 17.7943 22.3398 17.6029 22.3877Z" fill="#F57B20"/>
<path d="M17.8008 24.541C17.0352 24.8418 16.4746 25.6211 16.4746 26.3867C16.4746 26.6738 16.5088 26.8037 16.5977 26.8789C16.7754 27.043 16.9873 27.084 17.1787 26.9951C17.377 26.9063 17.4727 26.7285 17.5273 26.3526C17.6504 25.4434 18.8672 25.1563 19.4209 25.9082C19.4961 26.0039 19.5781 26.2295 19.6123 26.4141C19.6465 26.5918 19.7354 26.8106 19.8105 26.8858C19.9951 27.0703 20.3369 27.0635 20.5215 26.8858C20.8223 26.585 20.6104 25.6485 20.1113 25.0811C19.585 24.4795 18.5664 24.2403 17.8008 24.541Z" fill="#F57B20"/>
<path d="M3.69862 23.7549C2.80311 24.7393 2.45448 26.2227 2.80311 27.5762C3.05604 28.5743 3.70545 29.4835 4.56678 30.0508C5.43495 30.6319 6.71327 30.878 7.72498 30.6661C8.39491 30.5294 9.25623 30.0919 9.70057 29.6817C10.0902 29.3126 10.1381 29.1143 9.90565 28.8204C9.70057 28.5538 9.38612 28.5811 9.01698 28.8819C8.36073 29.4356 7.73182 29.668 6.89784 29.668C5.35291 29.668 4.10877 28.6495 3.78065 27.1114C3.59608 26.2227 3.81483 25.3409 4.42323 24.5411C4.83338 24.0079 4.88123 23.7686 4.6283 23.5294C4.34803 23.2628 4.0951 23.3243 3.69862 23.7549Z" fill="#F57B20"/>
</svg>
