<svg width="29" height="29" viewBox="0 0 29 29" fill="none" xmlns="http://www.w3.org/2000/svg">
<path d="M0 0.966667C0 0.710291 0.101848 0.464415 0.283139 0.28313C0.46443 0.101845 0.710313 0 0.966697 0H3.86679C4.08242 5.95689e-05 4.29184 0.0722113 4.46175 0.204981C4.63166 0.337751 4.7523 0.523516 4.80448 0.732733L5.58751 3.86667H28.0342C28.1761 3.8668 28.3163 3.89819 28.4448 3.9586C28.5732 4.01901 28.6868 4.10697 28.7774 4.21622C28.868 4.32547 28.9334 4.45334 28.9691 4.59073C29.0047 4.72813 29.0096 4.87168 28.9835 5.0112L26.0834 20.4779C26.0419 20.6994 25.9244 20.8995 25.751 21.0435C25.5777 21.1875 25.3595 21.2665 25.1341 21.2667H7.73357C7.5082 21.2665 7.28998 21.1875 7.11665 21.0435C6.94331 20.8995 6.82575 20.6994 6.78428 20.4779L3.88612 5.0402L3.11276 1.93333H0.966697C0.710313 1.93333 0.46443 1.83149 0.283139 1.6502C0.101848 1.46892 0 1.22304 0 0.966667ZM9.66697 21.2667C8.64143 21.2667 7.6579 21.674 6.93273 22.3992C6.20757 23.1243 5.80018 24.1078 5.80018 25.1333C5.80018 26.1588 6.20757 27.1423 6.93273 27.8675C7.6579 28.5926 8.64143 29 9.66697 29C10.6925 29 11.676 28.5926 12.4012 27.8675C13.1264 27.1423 13.5338 26.1588 13.5338 25.1333C13.5338 24.1078 13.1264 23.1243 12.4012 22.3992C11.676 21.674 10.6925 21.2667 9.66697 21.2667ZM23.2007 21.2667C22.1752 21.2667 21.1917 21.674 20.4665 22.3992C19.7413 23.1243 19.3339 24.1078 19.3339 25.1333C19.3339 26.1588 19.7413 27.1423 20.4665 27.8675C21.1917 28.5926 22.1752 29 23.2007 29C24.2263 29 25.2098 28.5926 25.9349 27.8675C26.6601 27.1423 27.0675 26.1588 27.0675 25.1333C27.0675 24.1078 26.6601 23.1243 25.9349 22.3992C25.2098 21.674 24.2263 21.2667 23.2007 21.2667ZM9.66697 23.2C10.1797 23.2 10.6715 23.4037 11.0341 23.7663C11.3967 24.1288 11.6004 24.6206 11.6004 25.1333C11.6004 25.6461 11.3967 26.1378 11.0341 26.5004C10.6715 26.863 10.1797 27.0667 9.66697 27.0667C9.1542 27.0667 8.66243 26.863 8.29985 26.5004C7.93727 26.1378 7.73357 25.6461 7.73357 25.1333C7.73357 24.6206 7.93727 24.1288 8.29985 23.7663C8.66243 23.4037 9.1542 23.2 9.66697 23.2ZM23.2007 23.2C23.7135 23.2 24.2053 23.4037 24.5678 23.7663C24.9304 24.1288 25.1341 24.6206 25.1341 25.1333C25.1341 25.6461 24.9304 26.1378 24.5678 26.5004C24.2053 26.863 23.7135 27.0667 23.2007 27.0667C22.688 27.0667 22.1962 26.863 21.8336 26.5004C21.471 26.1378 21.2673 25.6461 21.2673 25.1333C21.2673 24.6206 21.471 24.1288 21.8336 23.7663C22.1962 23.4037 22.688 23.2 23.2007 23.2Z" fill="#6C6C6C"/>
</svg>
