<svg width="25" height="26" viewBox="0 0 25 26" fill="none" xmlns="http://www.w3.org/2000/svg">
<g id="icon_key" clip-path="url(#clip0_219_123)">
<path id="Vector" d="M17.0622 0C22.1827 0.462617 25.8335 5.28115 24.8344 10.5054C23.8272 15.771 18.2986 18.8941 13.3743 16.9949L11.3348 19.0641C11.2719 19.1116 11.044 19.2159 10.987 19.2159H9.57369V20.7622C9.57369 20.7771 9.45111 20.9898 9.42594 21.0169C9.13042 21.3386 8.4526 21.0982 8.3552 21.2404C8.27768 21.5879 8.4473 22.0356 8.16106 22.3099C8.13456 22.3356 7.92651 22.461 7.91193 22.461H6.20113V24.1597C6.20113 24.2166 6.07458 24.4286 6.02886 24.4909C5.84135 24.7463 5.01511 25.5862 4.76399 25.7833C4.6752 25.853 4.58774 25.916 4.47841 25.9478C3.24468 25.8774 1.83139 26.0813 0.618855 25.9621C0.280936 25.9289 0.0523442 25.7243 0 25.3775L0.0245156 20.5333L0.198113 20.2549L8.35984 11.9142C8.38833 11.8452 8.10805 11.0127 8.06896 10.842C6.86173 5.57036 10.439 0.50732 15.694 0.0467358L15.7728 0H17.0622ZM8.33333 19.9257V18.4302C8.33333 18.3394 8.52548 18.1064 8.60566 18.0495C9.07874 17.7163 10.1468 18.0075 10.7127 17.8714L12.7462 15.7926C13.2159 15.3517 13.7361 15.7784 14.2469 15.9342C21.3193 18.0854 26.7989 9.47924 21.9243 3.82692C16.7965 -2.11937 7.30102 3.13739 9.3504 10.7994C9.43587 11.1184 9.74596 11.7476 9.76054 12.0043C9.76915 12.1642 9.67904 12.303 9.61543 12.4392L1.24168 21.0155V22.1054L1.39077 22.0295L8.1869 15.0855C8.68914 14.7638 9.25631 15.284 8.99791 15.8136L1.24168 23.8041V24.6914H4.04376L4.95084 23.7431C5.05685 23.2155 4.81037 21.9191 5.03962 21.5019C5.09727 21.3962 5.37754 21.1937 5.48157 21.1937H7.09364V20.4588C7.09364 20.2921 7.45209 19.9264 7.61443 19.9264H8.33333V19.9257Z" fill="#F57B20"/>
<path id="Vector_2" d="M21.3684 6.10419C21.3684 7.42566 20.3201 8.4972 19.0274 8.4972C17.7347 8.4972 16.6865 7.42566 16.6865 6.10419C16.6865 4.78272 17.7347 3.71118 19.0274 3.71118C20.3201 3.71118 21.3684 4.78272 21.3684 6.10419ZM20.1214 6.10013C20.1214 5.48443 19.6337 4.98592 19.0314 4.98592C18.4291 4.98592 17.9415 5.48443 17.9415 6.10013C17.9415 6.71582 18.4291 7.21433 19.0314 7.21433C19.6337 7.21433 20.1214 6.71582 20.1214 6.10013Z" fill="#F57B20"/>
</g>
<defs>
<clipPath id="clip0_219_123">
<rect width="25" height="26" fill="white"/>
</clipPath>
</defs>
</svg>
