<svg width="25" height="17" viewBox="0 0 25 17" fill="none" xmlns="http://www.w3.org/2000/svg">
<g id="icon_email" clip-path="url(#clip0_219_1768)">
<path id="Vector" d="M1.96641 0.015673L22.8823 0C23.9881 0.109711 24.8748 0.961278 25.0052 2.06884V14.9312C24.88 16.0387 23.9881 16.8903 22.8823 17H2.11767C1.02754 16.8903 0.161694 16.0701 0 14.9886V2.01137C0.156478 0.982176 0.944085 0.193301 1.96641 0.015673ZM22.0582 1.5882H2.94179L12.4765 9.92102L22.0582 1.5882ZM1.52827 14.5028L8.36637 8.4791L1.52827 2.49201V14.5028ZM23.4717 14.4453V2.49201L16.6336 8.51567L23.4717 14.4453ZM22.1156 15.4118L15.4131 9.57621C15.3192 9.57621 15.2566 9.63891 15.1836 9.69115C14.4847 10.1979 13.8118 11.0025 13.1129 11.5249C12.7217 11.8175 12.487 11.8906 12.0488 11.6398C11.3186 11.2167 10.5258 10.2084 9.81118 9.69115C9.73294 9.63368 9.65992 9.56054 9.5556 9.60233L2.94179 15.417H22.1156V15.4118Z" fill="#F57B20"/>
</g>
<defs>
<clipPath id="clip0_219_1768">
<rect width="25" height="17" fill="white"/>
</clipPath>
</defs>
</svg>
