<svg width="17" height="14" viewBox="0 0 17 14" fill="none" xmlns="http://www.w3.org/2000/svg">
<path id="Vector" d="M16.2032 5.97367L1.9857 0.0702267C1.84253 0.0107866 1.6832 -0.0116003 1.52619 0.00566573C1.36918 0.0229318 1.22094 0.0791424 1.09869 0.16777C0.976442 0.256398 0.885193 0.373806 0.835541 0.506362C0.78589 0.638917 0.779872 0.781181 0.818189 0.916634L1.83181 4.49486L8.32002 6.6415L1.83181 8.78814L0.818189 12.3664C0.779151 12.5019 0.784666 12.6445 0.834089 12.7774C0.883511 12.9103 0.974796 13.028 1.09727 13.1168C1.21974 13.2056 1.36833 13.2617 1.52566 13.2787C1.683 13.2957 1.84256 13.2729 1.9857 13.2128L16.2032 7.30933C16.3469 7.24974 16.4684 7.15529 16.5535 7.03703C16.6386 6.91877 16.6838 6.78158 16.6838 6.6415C16.6838 6.50142 16.6386 6.36423 16.5535 6.24597C16.4684 6.12771 16.3469 6.03327 16.2032 5.97367Z" fill="#F57B20"/>
</svg>
