<svg width="current" height="current" viewBox="0 0 14 14" fill="none" xmlns="http://www.w3.org/2000/svg">
<path d="M0.710972 0.775425C0.798058 0.688119 0.901512 0.618851 1.01541 0.571589C1.12931 0.524327 1.25141 0.5 1.37472 0.5C1.49804 0.5 1.62014 0.524327 1.73404 0.571589C1.84793 0.618851 1.95139 0.688119 2.03847 0.775425L6.99972 5.73855L11.961 0.775425C12.0481 0.68826 12.1516 0.619117 12.2655 0.571944C12.3794 0.524771 12.5015 0.500491 12.6247 0.500491C12.748 0.500491 12.8701 0.524771 12.9839 0.571944C13.0978 0.619117 13.2013 0.68826 13.2885 0.775425C13.3756 0.86259 13.4448 0.96607 13.492 1.07996C13.5391 1.19384 13.5634 1.31591 13.5634 1.43918C13.5634 1.56245 13.5391 1.68451 13.492 1.79839C13.4448 1.91228 13.3756 2.01576 13.2885 2.10293L8.32535 7.06418L13.2885 12.0254C13.3756 12.1126 13.4448 12.2161 13.492 12.33C13.5391 12.4438 13.5634 12.5659 13.5634 12.6892C13.5634 12.8124 13.5391 12.9345 13.492 13.0484C13.4448 13.1623 13.3756 13.2658 13.2885 13.3529C13.2013 13.4401 13.0978 13.5092 12.9839 13.5564C12.8701 13.6036 12.748 13.6279 12.6247 13.6279C12.5015 13.6279 12.3794 13.6036 12.2655 13.5564C12.1516 13.5092 12.0481 13.4401 11.961 13.3529L6.99972 8.3898L2.03847 13.3529C1.95131 13.4401 1.84783 13.5092 1.73394 13.5564C1.62006 13.6036 1.49799 13.6279 1.37472 13.6279C1.25145 13.6279 1.12939 13.6036 1.0155 13.5564C0.901617 13.5092 0.798137 13.4401 0.710972 13.3529C0.623807 13.2658 0.554664 13.1623 0.507491 13.0484C0.460318 12.9345 0.436038 12.8124 0.436038 12.6892C0.436038 12.5659 0.460318 12.4438 0.507491 12.33C0.554664 12.2161 0.623807 12.1126 0.710972 12.0254L5.6741 7.06418L0.710972 2.10293C0.623666 2.01584 0.554398 1.91239 0.507136 1.79849C0.459874 1.68459 0.435547 1.56249 0.435547 1.43918C0.435547 1.31586 0.459874 1.19376 0.507136 1.07986C0.554398 0.965965 0.623666 0.862511 0.710972 0.775425Z" fill="white"/>
</svg>
