<svg width="216" height="215" viewBox="0 0 216 215" fill="none" xmlns="http://www.w3.org/2000/svg">
<g id="ico_profile_user2 1" clip-path="url(#clip0_929_1404)">
<path id="Vector" d="M92.86 112.775C109.123 111.846 128.642 111.946 144.335 116.171C182.182 126.367 210.975 159.448 215.283 198.52C215.799 203.173 217.729 213.469 211.846 214.987L3.64565 215C-0.763474 213.054 -0.0397889 207.987 0.167936 203.969C2.72764 154.414 43.8705 115.576 92.8533 112.775H92.86Z" fill="#F57B21"/>
<path id="Vector_2" d="M108.01 102.506C136.38 102.506 159.378 79.5591 159.378 51.2529C159.378 22.9467 136.38 0 108.01 0C79.64 0 56.6416 22.9467 56.6416 51.2529C56.6416 79.5591 79.64 102.506 108.01 102.506Z" fill="#F57B21"/>
</g>
<defs>
<clipPath id="clip0_929_1404">
<rect width="216" height="215" fill="white"/>
</clipPath>
</defs>
</svg>
