<svg width="25" height="24" viewBox="0 0 25 24" fill="none" xmlns="http://www.w3.org/2000/svg">
<g id="Vector">
<path d="M12.3398 12C13.9311 12 15.4573 11.3679 16.5825 10.2426C17.7077 9.11742 18.3398 7.5913 18.3398 6C18.3398 4.4087 17.7077 2.88258 16.5825 1.75736C15.4573 0.632141 13.9311 0 12.3398 0C10.7485 0 9.22242 0.632141 8.0972 1.75736C6.97198 2.88258 6.33984 4.4087 6.33984 6C6.33984 7.5913 6.97198 9.11742 8.0972 10.2426C9.22242 11.3679 10.7485 12 12.3398 12ZM16.3398 6C16.3398 7.06087 15.9184 8.07828 15.1683 8.82843C14.4181 9.57857 13.4007 10 12.3398 10C11.279 10 10.2616 9.57857 9.51142 8.82843C8.76127 8.07828 8.33984 7.06087 8.33984 6C8.33984 4.93913 8.76127 3.92172 9.51142 3.17157C10.2616 2.42143 11.279 2 12.3398 2C13.4007 2 14.4181 2.42143 15.1683 3.17157C15.9184 3.92172 16.3398 4.93913 16.3398 6ZM24.3398 22C24.3398 24 22.3398 24 22.3398 24H2.33984C2.33984 24 0.339844 24 0.339844 22C0.339844 20 2.33984 14 12.3398 14C22.3398 14 24.3398 20 24.3398 22ZM22.3398 21.992C22.3378 21.5 22.0318 20.02 20.6758 18.664C19.3718 17.36 16.9178 16 12.3398 16C7.76184 16 5.30784 17.36 4.00384 18.664C2.64784 20.02 2.34384 21.5 2.33984 21.992H22.3398Z" fill="#F57B20"/>
<path d="M22.3398 22.492H22.8419L22.8398 21.99C22.8373 21.3703 22.4816 19.7627 21.0294 18.3104C19.6142 16.8952 17.0236 15.5 12.3398 15.5C7.65613 15.5 5.0655 16.8952 3.65029 18.3104C2.19736 19.7634 1.84488 21.3707 1.83986 21.9879L1.83576 22.492H2.33984H22.3398ZM16.2289 9.88909C15.1975 10.9205 13.7985 11.5 12.3398 11.5C10.8812 11.5 9.48221 10.9205 8.45076 9.88909C7.41931 8.85764 6.83984 7.45869 6.83984 6C6.83984 4.54131 7.41931 3.14236 8.45076 2.11091C9.48221 1.07946 10.8812 0.5 12.3398 0.5C13.7985 0.5 15.1975 1.07946 16.2289 2.11091C17.2604 3.14236 17.8398 4.54131 17.8398 6C17.8398 7.45869 17.2604 8.85764 16.2289 9.88909ZM15.5218 9.18198C16.3657 8.33807 16.8398 7.19347 16.8398 6C16.8398 4.80653 16.3657 3.66193 15.5218 2.81802C14.6779 1.97411 13.5333 1.5 12.3398 1.5C11.1464 1.5 10.0018 1.97411 9.15786 2.81802C8.31395 3.66193 7.83984 4.80653 7.83984 6C7.83984 7.19347 8.31395 8.33807 9.15786 9.18198C10.0018 10.0259 11.1464 10.5 12.3398 10.5C13.5333 10.5 14.6779 10.0259 15.5218 9.18198ZM23.8398 22C23.8398 22.4125 23.7382 22.6886 23.6113 22.8789C23.4824 23.0723 23.3069 23.2074 23.1162 23.3028C22.9236 23.3991 22.7249 23.4498 22.5701 23.4756C22.494 23.4883 22.4316 23.4944 22.3902 23.4974C22.3752 23.4984 22.3631 23.4991 22.3542 23.4995C22.3509 23.4996 22.348 23.4997 22.3456 23.4998L22.3382 23.5L22.339 23.5H22.3377H2.34202H2.34073L2.34145 23.5L2.33404 23.4998C2.32529 23.4995 2.31014 23.4988 2.28953 23.4974C2.24813 23.4944 2.18574 23.4883 2.10954 23.4756C1.95479 23.4498 1.75609 23.3991 1.56345 23.3028C1.37277 23.2074 1.19729 23.0723 1.06837 22.8789C0.941534 22.6886 0.839844 22.4125 0.839844 22C0.839844 21.1284 1.29012 19.2568 2.9434 17.6036C4.58203 15.9649 7.44529 14.5 12.3398 14.5C17.2344 14.5 20.0977 15.9649 21.7363 17.6036C23.3896 19.2568 23.8398 21.1284 23.8398 22Z" stroke="#F57B20" stroke-opacity="0.5"/>
</g>
</svg>
