<svg width="24" height="24" viewBox="0 0 24 24" fill="none" xmlns="http://www.w3.org/2000/svg">
<g id="icon_key2" clip-path="url(#clip0_219_1776)">
<path id="Vector" d="M17.1094 0L18.2441 0.154665C21.0928 0.724483 23.4023 3.07451 23.8914 5.94427C24.8213 11.402 19.6224 15.7758 14.4129 13.9837C14.3127 13.9944 13.2086 15.2279 12.9851 15.3989C12.816 15.5279 12.6595 15.5917 12.4472 15.6105C11.7176 15.6756 10.9499 15.526 10.2184 15.5617V17.5535C10.2184 17.7276 9.84583 18.1396 9.67925 18.1396H7.64027V20.1315C7.64027 20.2386 7.43237 20.511 7.33593 20.5773C6.86626 20.8992 5.14352 20.5892 5.06211 20.6706L5.09154 22.9361C5.11221 23.3701 4.46595 23.9925 4.05264 24.0006C3.94117 24.0025 3.83972 23.9512 3.72888 23.9499C2.85154 23.9436 1.77632 23.9443 0.915262 23.8579C0.53765 23.8197 0.200116 23.6243 0.145634 23.2217C0.0454384 22.4803 0.0579629 21.5041 0.0485695 20.7408C0.0473171 20.6612 0.0786282 20.5322 0.000976562 20.4834V19.7332L0.163795 19.4508L10.0105 9.60802C9.64419 8.36068 9.51894 7.09017 9.76442 5.80338C10.3631 2.65874 13.1592 0.166562 16.3786 0.043206L16.4531 0H17.1094ZM20.5223 5.66813C20.5223 4.47151 19.5523 3.50219 18.3562 3.50219C17.1601 3.50219 16.1901 4.47214 16.1901 5.66813C16.1901 6.86412 17.1601 7.83406 18.3562 7.83406C19.5523 7.83406 20.5223 6.86412 20.5223 5.66813Z" fill="#F57B20"/>
</g>
<defs>
<clipPath id="clip0_219_1776">
<rect width="24" height="24" fill="white"/>
</clipPath>
</defs>
</svg>
